<mxfile host="app.diagrams.net" modified="2024-01-19T13:45:59.922Z" agent="Mozilla/5.0 (Windows NT 10.0; Win64; x64) AppleWebKit/537.36 (KHTML, like Gecko) Chrome/120.0.0.0 Safari/537.36" etag="SC63gBrvVFKGrDDxcqYh" version="22.1.21" type="github">
  <diagram id="C5RBs43oDa-KdzZeNtuy" name="Page-1">
    <mxGraphModel dx="1042" dy="533" grid="1" gridSize="10" guides="1" tooltips="1" connect="1" arrows="1" fold="1" page="1" pageScale="1" pageWidth="827" pageHeight="1169" math="0" shadow="0">
      <root>
        <mxCell id="WIyWlLk6GJQsqaUBKTNV-0" />
        <mxCell id="WIyWlLk6GJQsqaUBKTNV-1" parent="WIyWlLk6GJQsqaUBKTNV-0" />
        <mxCell id="2o4ibDYSHPupsS00okfa-0" value="" style="shape=image;verticalLabelPosition=bottom;verticalAlign=top;imageAspect=0;aspect=fixed;image=data:image/png,iVBORw0KGgoAAAANSUhEUgAAAMgAAADICAYAAACtWK6eAAAAAXNSR0IArs4c6QAADbFJREFUeF7tnQ2MXFUVx899O62mGqJYonzEj0BEIzFoMBZQbGOqDUQBDaTRYEANBkhQ2n33dTaYjol2efe1K1pTUEIhSkJYNCDB1q8gRIlGgxAVjUZ01UJApWBqN6ndN8e8ddus0N0978599829+9+k7bQ993z8zv52dmbnQxE+QAAEFiSgwAYEQGBhAhAEnx0gsAgBCIJPDxCIRZDJycmRffv2vebw4cMn9vv9l2OzYRFIkuTfnU7nmQMHDjzT6/X+E0L3Q30NYoy5hIiqX6cz84lKqRNCgIoeRQSeI6KniegZZv5SlmX3ik55Dho6QYwx5yulLmLmi4lotWceKNcegSlm3l2W5bfGxsZ+214b/195qAQpiuLa6qvJsMBBH60RuFRrfXdr1ecVHhpBiqL4OjNfNgxQ0MNQEBgKSYZCEGMMD8VK0MSwEWhdktYFMcZ8n4jWD9tm0E/7BJj5H0qps7XWT7TVTauC5HmeKqVMW8Oj7vATYOZdWZZd01anrQlijDlTKfUQMx/X1vCoGwaBsizXdbvdB9votk1BNBHlbQyNmsERuE9rfWEbXbcpyF4i2tDG0KgZHIFDSZKcMjo6+k/fnbciyLZt217V6XS8D+sbLuo5JbBRa32X04yCZK0IcsMNN2xMkuROQX8IAYFZAkqpW9I0vdI3jlYEMcZsJ6LNvodFvaAJ/ElrfarvCdoS5A4i+qjFsK3ck2HRJ44sTmCtDaDp6emX+H4UcFuC/JCI3lsXUpt399XtFfHHJpDneU8ptdWGz8zMzOqxsbFnbc7anmlLkN8Q0VvqNg1B6hIbvvhBBCnL8g3dbnfK51RtCVJ9FTi+7qAQpC6x4YsfRJB+v//WLVu2/NrnVG0JYvXgRAji81OjmVpFUWxl5p5NdqXUOWma/tTmrO0ZCGJLDuesCAwiSBtfICGI1ZpxyJYABBGQs33+RxtfQQTjIKQGAQgigAVBBJAiDYEggsVCEAGkSEMGuRerje8gcBsk0k/EYR0Lggg2g2sQAaRIQyCIYLEQRAAp0hAIIlgsBBFAijQEgggWC0EEkCINgSCCxUIQAaRIQyCIYLEQRAAp0hAIIlgsBBFAijQEgggWC0EEkCINgSCCxUIQAaRIQyCIYLEQRAAp0hAIIlgsBBFAijQEgggWC0EEkCINgSCCxUIQAaRIQyCIYLEQRAAp0hA8H0SwWAgigBRpCAQRLBaCCCBFGgJBBIuFIAJIkYZAEMFiIYgAUqQhEESwWAgigBRpCO7FEiwWggggRRoCQQSLhSACSJGGQBDBYiGIAFKkIRBEsFgIIoAUaQgEESwWggggRRoCQQSLhSACSJGGQBDBYiGIAFKkIRBEsFgIIoAUaQgEESwWggggRRoCQQSLhSACSJGGQBDBYiGIAFKkIRBEsFgIIoAUaQgEESwWggggRRoCQQSLhSACSJGGQBDBYiGIAFKkIRBEsFgIIoAUaQgEESwWggggRRoCQQSLhSACSJGGQBDBYiGIAFKkIRBEsFgIIoAUaQgEESwWggggRRoCQQSLhSACSJGGQBDBYiGIAFKkIRBEsFgIIoAUaQgEESwWggggRRoCQQSLhSACSJGGQBDBYiGIAFKkIRBEsFgIIoAUaQgEESwWggggRRoCQQSLhSACSJGGQBDBYiGIAFKkIRBEsFgIIoAUaQgEESwWggggRRoCQQSLhSACSJGGQBDBYm0FmUvNRFT9IqUUM89enP3tBX8e699mY6oz1dnqV7/fn728SL4F87ywn/m5j+Q7kn+JXo/0/qJai/U6v/e52cW9Hmt2Sa8LzTE/nyD3WsGnyYtCyrJc1+12H7Q5a3tG2R4c5NyAggxSGmcDJgBBAl4eWm+eAARpnjEqBEwAggS8PLTePAEI0jxjVAiYAAQJeHlovXkCEKR5xqgQMAEIEvDy0HrzBCBI84zbrvAvInqAiPYx8/46zSiljiOiNUR0dp1zMcVCkJi2+YJZmPk7RLQ5y7LfDzJmURQXMPMuInrtIHlCPAtBQtyavOdPaK13y8MXjjTGXE5Et7nIFVIOCBLStmr26nq5y/HhOq4ZSlaIx2JJKDmIYebPZVnWc5CKjDGXENGki1wh5YAgIW3LoldmvirLspstjh49Yoz5OBHdOkiOUM9CkFA3V6NvpdQfiMgQ0V+UUivKslxBRCury0Q0e7n6s/o7M69k5tnLRHQiEZ1KROtrlIsqFIJEtU4M45oABHFNFPmiIgBBolonhnFNAIK4Jop8URGAIFGtE8O4JgBBXBNFvqgIQJCo1olhXBOAIK6JIl9UBCBIVOvEMK4JLBtBXINDPhBoikArD1ZsahjkBQHXBCCIa6LIFxUBCBLVOjGMawIQxDVR5IuKAASJap0YxjUBCOKaKPJFRQCCRLVODOOaAARxTRT5oiIAQaJaJ4ZxTQCCuCaKfFERaF2Q6k0dkyQ5qd/vn5QkSTL3kpz76740Z1RbwTBHCTDzk0mSPKm13tMGltYEmZiYOH5mZqZ6+ZqL2hgcNcMi4PJ1xepM3oogO3bseFtZlr+s0yhiQWBZPJq31+utWrVq1a/mXuMJWweBOgTu01pfWOfAoLHer0GMMV8gorFBG8f55UmAma/LsuxGX9N7FaQoijOY+WdE9DJfA6JOdASeJ6J1WuvHfEzmW5DdzHyFj8FQI2oCX9Naf8rHhN4EKYpiIzPf6WMo1IifQJIkZ42Ojj7S9KReBJm7S/chIjqj6YGQf9kQuFdrfXHT03oRJM/zHUqpTU0Pg/zLi4CPG+yNC2KM2UBEe5fX6jCtJwKN32BvVJDJycmRqamp6lurcz0BQ5nlR+AurfXGpsZuVJCiKLYys5O3HWsKAPKGT4CZP5Zl2TeamKQxQfI8P0sp9WMiemkTjSMnCMwj8HhZlu/udrvPuabSmCDGmG8S0YddN4x8ILAAAaO1zlzTaUSQ5fo+3q6Xg3y1CZynta6+a3H24VyQ7du3r+73+z8hotOddYlEICAjsEdrfYEsVBblXBBjzHYi2iwrjygQcE7gaq31Ta6yOhUkz/N1SqkHXDWHPCBgQeCvIyMj79q8efPfLM6+6IhTQYqi+C4zv99FY8gBArYElFI3pml6ne35+eecCWKMuYaIvuKiKeQAAQcEnNxgdyLIxMTEyTMzMw8T0escDIYUIOCCgJMHMzoRxBhTPcPr0y6mQg4QcEVAKXVZmqZ3DJJvYEHGx8fXjoyM/GiQJnAWBBoi8Nj09PS5vV5v2jb/wIIURXE/Mzu979l2GJwDgWMQ+KzW+vO2ZAYSxBjzSSK6xbY4zoGABwLPM/M5WZb9zqaWtSDVT8zLsnxYKfVGm8I4AwIeCdyutbZ6LQRrQfAsQY/rRSkXBK7QWt9eN5GVIMaY9xHR9+oWQzwItEhgau6VGafq9GAlSFEUDzHzeXUKIRYE2ibAzLdmWVbdbhZ/1BbEGFP9CH9CXAGBIDBEBPr9/oYtW7aIv/upJcj4+PjrR0ZGqsfbnzJEM6MVEBATUErtTdP0fOmBWoIYY24josulyREHAsNIoM5P2MWC4FmCw7hq9GRDQCn1i4MHD67p9Xr9pc7XEeRRIjpzqYQL/P/j1YtWV1dvZVk+a5kDx0DgKIEkSc5USr2HiNYS0SvqolFKXZem6ZKvEi8SJM/zzyilvli3ibn4m7TWV1uexTEQWJRAURTvnHvHgLqk/qyUWpOm6d8XOygSpCiK+5j5A3U7IKLHtdZ4PV4LcDgiJ2CM+TYRfVB+4n+RSqkPpWl6z8CCGGO+SkRX1m2grfeVq9sn4sMmUL0RrFJqa90pmPmqLMtuHlgQ2wZwDVJ3ZYi3IWB7DSL5Ai76FssYU904r26k23zs1Fpfa3MQZ0BgKQIDfPF+Smt98lL5RYJUSYwx1U/PbZ8I/wOl1P0zMzPVm3fiAwQGJpAkyZuq2xBEtN4mGTNfk2XZrqXOigWZkwQvJ7oUUfx/CATu1lpfKmm0liBVwqIofs7M75AkRwwIDCEBsRxV77UFmbsmeZqIXj2Ew6MlEFiQADM/mmXZ2+sgshJkTpL9RPTKOsUQCwItEpjWWtd++3FrQXCbpMVVo3RdAk9orU+re8j6W6z5hfI8N0qp1KY4zoCABwL3aK2re7usPga6BjlSsSiKa5n5eiI6waoLHAIB9wT2M/POLMsGegtAJ4JUs+V5/uYkSa5n5o+4nxUZQaAWgZ2dTufLmzZt+mOtU8cIdibIkdxzzxupnrF1Np55OOh6cL4GgbuJaE9Zlg92u91aL8ywWA3ngswvNjExcdqhQ4caf3pup9PpMPNKpdSK6s8jl4no6OXq36q/E9FIDegIHWICSqmnkiR5ZHR09JGm2mxUkKaaRl4Q8EUAgvgijTpBEoAgQa4NTfsiAEF8kUadIAlAkCDXhqZ9EYAgvkijTpAEIEiQa0PTvghAEF+kUSdIAhAkyLWhaV8EIIgv0qgTJAEIEuTa0LQvAhDEF2nUCZIABAlybWjaFwEI4os06gRJAIIEuTY07YsABPFFGnWCJABBglwbmvZFAIL4Io06QRKAIEGuDU37IgBBfJFGnSAJQJAg14amfRGAIL5Io06QBCBIkGtD074IQBBfpFEnSAIQJMi1oWlfBCCIL9KoEyQBCBLk2tC0LwIQxBdp1AmSAAQJcm1o2hcBCOKLNOoESQCCBLk2NO2LwH8B1FnVMof8eFMAAAAASUVORK5CYII=" vertex="1" parent="WIyWlLk6GJQsqaUBKTNV-1">
          <mxGeometry x="112" y="90" width="80" height="80" as="geometry" />
        </mxCell>
        <mxCell id="2o4ibDYSHPupsS00okfa-1" value="" style="shape=image;verticalLabelPosition=bottom;verticalAlign=top;imageAspect=0;aspect=fixed;image=data:image/png,iVBORw0KGgoAAAANSUhEUgAAAMgAAADICAYAAACtWK6eAAAAAXNSR0IArs4c6QAACrBJREFUeF7tnV2IXGcZx59ndpwrCVKiFzZIlEBJeyMIflALKeiFNIkUaa8UqUJQIYWd5LyzIRfd3nQz7ywbE4gSxCJCRFoImJQWLDERWqvUK6kipBeBtulF6xf4kZjd87qzTWL2M7Nnzz57nnN+A7k773n+7+9/fkxmZ86MCg8IQGBVAgobCEBgdQIIwtUBgTUIIAiXBwQQhGsAAsUI8AxSjBurGkIAQRpSNNssRgBBinFjVUMIIEhDimabxQggSDFurGoIAQRpSNFssxgBBCnGjVUNIYAgDSmabRYjgCDFuLGqIQTuKsjU1NTOdru9N8/z3aq6Q0S2NYQN26wvgXdF5Gqe5xcmJiZeWmubqwoSY9yrqgdSSvvqy4mdNZ1ASulNETnT6XROj4+PD8VZ9FhRkBjjcyLyWNPhsf9GEbgqIs+EEE7duetlgsQY3xCRBxqFhs1C4CaBlNLTvV5v8haQRYLEGN8WkXuhBYGGE3g8hPD8kMFtQWKMZ0Xk0YaDYfsQuEVgXwjhhQVBhi/IReQ8bCAAgQ8IqOr5LMv2LwgyGAzO8dcqLg0ILPkLlupenZmZ2TU7O3sZOBCAwDICP9N+vz+pqk8BBwIQWE5AY4yn599VPAAcCEBgBUF4/cFlAYHVCQyfQS6KyB4gQQACK/8XC0G4MiCwCgGeQbg0ILAGAQTh8oDAZgoSQrjrPSU0AIGtIjA1NbVnbGxs+DKi0GPDzyAIUog7i4wIIIgRaMb4JIAgPnsjtREBBDECzRifBBDEZ2+kNiKAIEagGeOTAIL47I3URgQQxAg0Y3wSQBCfvZHaiACCGIFmjE8CCOKzN1IbEUAQI9CM8UkAQXz2RmojAghiBJoxPgkgiM/eSG1EAEGMQDPGJwEE8dkbqY0IIIgRaMb4JIAgPnsjtREBBDECzRifBBDEZ2+kNiKAIEagGeOTAIL47I3URgQQxAg0Y3wSQBCfvZHaiACCGIFmjE8CCOKzN1IbEUAQI9CM8UkAQXz2RmojAghiBJoxPgkgiM/eSG1EAEGMQDPGJwEE8dkbqY0IIIgRaMb4JIAgPnsjtREBBDECzRifBBDEZ2+kNiKAIEagGeOTAIL47I3URgQQxAg0Y3wSQBCfvZHaiACCGIFmjE8CCOKzN1IbEUAQI9CM8UkAQXz2RmojAghiBJoxPgkgiM/eSG1EAEGMQDPGJwEE8dkbqY0IIIgRaMb4JIAgPnsjtREBBDECzRifBBDEZ2+kNiKAIEagGeOTAIL47I3URgQQxAg0Y3wSQBCfvZHaiACCGIFmjE8CCOKzN1IbEUAQI9CM8UkAQXz2RmojAghiBJoxPgkgiM/eSG1EAEGMQDPGJwEE8dkbqY0IIIgRaMb4JIAgPnsjtREBBDECzRifBBDEZ2+kNiKAIEagGeOTAIL47I3URgQQxAg0Y3wSQBCfvZHaiACCGIFmjE8CCOKzN1IbEUAQI9CM8UkAQXz2RmojAghiBJoxPgkgiM/eSG1EAEGMQDPGJwEE8dkbqY0IIIgRaMb4JIAgPnsjtREBBDECzRifBBDEZ2+kNiKAIEagGeOTAIL47I3URgQQxAg0Y3wSQBCfvZHaiACCGIHezDHT09Pb8zy/T0SG/+7J8/yPnU7ncrfbfXMz5zbh3AjivOUY48F5KU6uso1XVTXLsuw159vcsvgIsmXoNz44xnhRRPaMcKZuCOH4CMdxyBICCOL0kogx/vnmf6lG2oGqfj7Lst+NdDAH3SaAIA4vhhhjX0TCOqNfabfbn+l2u39d57pGH44gzuqfmZm5Z3Z29i9FYqvqIMuy9YpVZFRt1iCIsyoHg8HnUkq/LRj7xRDCIwXXNnIZgjirvd/vf0NVf1ow9pUQwicLrm3kMgRxVnuM8bCIDArG/lcI4cMF1zZyGYI4q/3YsWNfabVaLxaM/XoI4bMF1zZyGYI4q31mZmbX7Ozs5YKxfxJCeKLg2kYuQxCHtccYXxGRB9cbPaX09V6vd2a965p8PII4bH8wGHwhpfSb9URPKT3d6/Um17OGY0UQxOlVEGMcF5GZUeOHEHTUYznu/wQQxPHVcPM9kZ+LyM41tnEuhPBVx9vc0ugIsqX4Nz58+M763NzcRErpARG5X1W3i8gfUkp/EpHXQgjPbnxKc8+AIM3tnp2PQABBRoDEIc0lsOWCNBc9O28CAV3HTTtN4MEeIbCIAIJwQUBgDQIIwuUBgbsI8gsR2Q8lCEBgOQHt9/unVPV7wIEABFYW5Duq+kPgQAACywi8P3wG2aGqbwEHAhBYTEBVf7TwAbjBYHAupbQPQBCAwCICjywIEmPcKyLngQMBCHxAQFXPZ1m2//ZHqGOMZ0XkUQBBAAILBPaFEF5YdI9BjPFtEbkXQBBoOIHHQwjPLzyTLAURY3xDRIYfveYBgcYRWHrn5op3qcUYnxORxxpHhw03mcBVEXkmhHDqTgir3sY5fOGuqgf461aTr5n6733+izCGv8FyptPpnB4fH3936Y7vep/z1NTUzna7vTfP892qumP+Pupt9cdWeIefFpGPFFz99yXrip5HUkpXVPVKwRxNWDYU4Wqe5xcmJiZeWmvDdxWkCbTK2uMGbx24FEJ4eJhlozf58A0oZTW6wov08k7dvDMhSP065xmkxE4RpESYFTkVgpRYBIKUCLMip0KQEotAkBJhVuRUCFJiEQhSIsyKnApBSiwCQUqEWZFTIUiJRSBIiTArcioEKbEIBCkRZkVOhSAlFoEgJcKsyKkQpMQiEKREmBU5FYKUWASClAizIqdCkBKLQJASYVbkVI0QpN/v36eqD6aUPrHJ3L+pqmv9GM6q44efwG21Wrc/gZtS2lM0q6peyvP810XXj7IupfSrTqfzerfb/c8ox3s9ptaCxBgPish3RWS314KqnFtV/ykiF1ut1olDhw5dqHLWotlqKcj09PT9eZ4P74rk1uGiV8b61z0bQvj2+pdVe0XtBDl58uS2a9eu/aPa2OuZLqU03uv1vl+n3dVOkBjjL0Xky3UqydNe5ubmHj5y5MglT5nXylorQfgCvEpclq+GEL5YiSQlhKiVIIPB4MmU0okSuHCK4gTen/9mkI8WX16tlbUShJ9yqMbF1W63d3S73XeqkWZjKWolyAbfqNsYSVbfJlCn1yG1EqTf759Q1Se5VreWwI0bNz5+9OjRZd8xtbWpik2vlSAxxuGbgj8ohoJVZRBQ1XeyLBt+f1otHrUSZDAYfCml9HItmnG6CVU9m2XZ15zGXxa7VoIMdxdj/LGIfKsuBXnbR51eoA/Z106Qm5K8JyLbvV1c3vPW6cX5rS5qKchwc/1+f1JVn/J+0TnJf7XVah08fPjw8EeYavWorSA3n0keUtUnROShlNKuWjW39Zv57/wtBC/nef77Xq83ufVxNidBrQW5E9nx48c/de3atc2+H2SklsbGxobvNH8spfShkRaIyNjY2N/yPH9vbm7u36Ou2czjrl+//srk5OTsZs6owrkbI0gVYJPBHwEE8dcZiQ0JIIghbEb5I4Ag/jojsSEBBDGEzSh/BBDEX2ckNiSAIIawGeWPAIL464zEhgQQxBA2o/wRQBB/nZHYkACCGMJmlD8CCOKvMxIbEkAQQ9iM8kcAQfx1RmJDAghiCJtR/gggiL/OSGxI4H9W+T8k9KE8IAAAAABJRU5ErkJggg==" vertex="1" parent="WIyWlLk6GJQsqaUBKTNV-1">
          <mxGeometry x="117" y="190" width="70" height="70" as="geometry" />
        </mxCell>
        <mxCell id="2o4ibDYSHPupsS00okfa-2" value="" style="shape=image;verticalLabelPosition=bottom;verticalAlign=top;imageAspect=0;aspect=fixed;image=data:image/png,iVBORw0KGgoAAAANSUhEUgAAAMgAAADICAYAAACtWK6eAAAAAXNSR0IArs4c6QAADmFJREFUeF7tnGuMXVUVx9c+cz9QbBOFoDQaqDyUVDAqCYIm0EoTBBMMmjYmAj5iRB7F2N67z1xi4vWRMmef6SS2loeayENMrMRHNBoJSpHEghDEiJogvrCmGLAmxM4HZ87ZzsHb2CAwe9+z9l173/nfZMKXtf9rnd+eH+fOvudW0Qp5zc7Orq+qapNS6jQiOrH5sdaubf6rlFq9QjD4XuYhIjpIRE8f+VFKPVbX9b48zw/4hqVYr1Ic2mVmY0zzi/+euq7PU0pdSETrXNahxpnAo0R0PxHt11p/y3lVYoUTJ8hgMFi9atWqa5VS1xDRSYntR6rjPqiU2tPr9b6e6gW81NwTJYgx5nkxrLXrJ22jErmee621e/I8/24i8y475kQIMjc3d9ri4uLNRLRp2StGwTgI3Kq1/sQ4GoXukbwgMzMzF2dZdicRHR8aFvK9CDw8Pz+/aTAYPOe1KrLipAUxxmwlol2RMcU4/yNQEdE5WuvmD/okX8kKUhTFdUqp3UlSX2FDZ1n2pm63+9sULztJQYwxm4lob4rAV+rMqUqSnCCQI1nFns2y7ILU7iRJCVIUxaVKqe8l+yuCwX9jrX13Sp/CJyWIMeanS5/ebsTvWdIEdmqtu6lcQTKClGV5lbX2llTAYs6XJFBlWXZet9t9OAVGSQgyGAxeeeyxx+4nojNSgGqtfUIp9f2qqn4wjnmzLGsOLTYvPe5xwjj6MfT4htb6gww5wSOSEKQoioFS6jPBaTA0sNY+mef56QxRXhFlWb596f39g16LBIuzLLuk2+3+SHAEp9ZJCGKMeYSIzna6IvmiXGttJMYwxjQHGJdK9B6h581a6+aB0qhf0QtSFMU5SqmHoqZ41HBVVW3s9/v7JOZN6U5LRH/VWkf/tHX0gpRlucNa25f4hRulp7X26jzPRQ4TjDHN4+ZJvLcfsr1Ia33PKJzHtSZ6QYwxv0vlj/Phpj2ktT53XBt4pM/wb5D7iGjVuHu36HeL1vrqFuuDL41akKIo1iilUnwatPlA7O48zwfBd5CIjDGltfYKpdRrxtGPscejWuuo/7aMWpDZ2dkz6rpu7iB4TSCBpbejf196O9r8+wDRvqIWpCiKC5VS90ZLD4O1JrBu3brOli1bmsfio3xFLYgx5koiuj1KchiKhUBd1ydPT08/xRIWICRqQYqi6CuldgS4bkRGQkAp9Y5er9c8JRHlK3ZBkvkEPcrdTWAoyc+NXPBAEBdKqAlGAIK0QJvYJ8MtrnTlLoUgLfYegrSAl8hSCNJioyBIC3iJLIUgLTYKgrSAl8hSCNJioyBIC3iJLIUgLTYKgrSAl8hSCNJioyBIC3iJLIUgLTaqrSAN/BbtsdSBwNTUVPNV6A0OpS9aAkFGJbf0xQYOQaS+3dfispNaaoxpvoMCQSR2DYJIUPfrCUH8eLFWQxBWnEHCIEgQrG6hEMSNk2QVBBGkD0EE4Tu2hiCOoEKUQZAQVHkzIQgvT680COKFS6QYgohg/29TCCII37E1BHEEFaIMgoSgypsJQXh5eqVBEC9cIsUQRAQ73mIJYvdqDUG8cPEW4w7CyzNEGgQJQdUxE4I4ghIsgyCC8CGIIHzH1hDEEVSIMggSgipvJgTh5emVBkG8cIkUQxAR7DjFEsTu1RqCeOHiLcYdhJdniDQIEoKqYyYEcQQlWAZBBOFDEEH4jq0hiCOoEGUQJARV3kwIwsvTKw2CeOESKYYgIthxiiWI3as1BPHCxVuMOwgvzxBpECQEVcdMCOIISrAMggjChyCC8B1bQxBHUCHKIEgIqryZEISXp1caBPHCJVIMQUSw4xRLELtXawjihYu3GHcQXp4h0iBICKqOmRDEEZRgGQQRhA9BBOE7toYgjqBClEGQEFR5MyEIL0+vNAjihUukGIKIYMcpliB2r9YQxAsXbzHuILw8Q6RBkBBUHTMhiCMowTIIIggfggjCd2wNQRxBhSiDICGo8mZCEF6eXmkQxAuXSDEEEcGOUyxB7F6tIYgXLt5i3EF4eYZIgyAhqDpmQhBHUIJlEEQQPgQRhO/YGoI4ggpRBkFCUOXNhCC8PL3SIIgXLpFiCCKCHadYgti9WkMQL1y8xbiD8PIMkQZBQlB1zIQgjqAEyyCIIHwIIgjfsTUEcQQVogyChKDKmwlBeHl6pUEQL1wixRBEBDtOsQSxe7WGIF64eItxB+HlGSINgoSg6pgJQRxBCZZBEEH4EEQQvmNrCOIIKkQZBAlBlTcTgvDy9EqDIF64RIohiAh2nGIJYvdqDUG8cPEW4w7CyzNEGgQJQdUxE4I4ghIsgyCC8CGIIHzH1hDEEVSIMggSgipvJgTh5emVBkG8cIkUQxAR7DjFEsTu1RqCeOHiLcYdhJdniDQIEoKqYyYEcQQlWAZBBOFDEEH4jq0hiCOoEGUQJARV3kwIwsvTKw2CeOESKYYgIthxiiWI3as1BPHCxVuMOwgvzxBpECQEVcdMCOIISrAMggjChyCC8B1bQxBHUCHKIEgIqryZEISXp1caBPHCJVIMQUSw4xRLELtXawjihYu3GHcQXp4h0iBICKqOmRDEEZRgGQQRhA9BBOE7toYgjqBClEGQEFR5MyEIL0+vNAjihUukGIKIYMcpliB2r9YQxAsXbzHuILw8Q6RBkBBUHTMhiCMowTIIIggfggjCd2wNQRxBhSiDICGo8mZCEF6eXmkQxAuXSDEEEcGOUyxB7F6tIYgXLt5i3EF4eYZIgyAhqDpmQhBHUIJlEEQQPgQRhO/YGoI4ggpRBkFCUOXNhCC8PL3SIIgXLpFiCCKCHadYgti9WkMQL1y8xbiD8PIMkQZBQlB1zIQgjqAEyyCIIHwIIgjfsTUEcQQVogyChKDKmwlBeHl6pUEQL1wixRBEBDtOsQSxe7WGIF64eItxB+HlGSINgoSg6pgJQRxBCZZBEEH4EEQQvmNrCOIIKkQZBAlBlTcTgvDy9EqDIF64RIohiAh2nGIJYvdqDUG8cPEW4w7CyzNEGgQJQdUxE4I4ghIsgyCC8CGIIHzH1hDEEVSIMggSgipvJgTh5emVBkG8cIkUQxAR7DynWIKjo7UjgaqqNvb7/X2O5WMvU2Pv6NGw7R3EoxVKhQhAkBbgIUgLeIkshSAtNgqCtICXyFII0mKjIEgLeIkshSAtNmoFCfIsET02/Hm1Uuosa+1ZRNRpgS+JpRCkxTatAEH21HV96/T09K9fiGkwGKw+5phj3pxl2eeI6MIWGKNeCkFabM8EC/I3pdTWXq/3HRc8ZVl+0Vp7vUttajUQpMWOTaIg1trP5nk+8MUyMzNzUpZlf/FdF3s9BGmxQxMoyANa6/NHRVIUxblKqf2jro9xHQRpsSvGmGuJ6EstIqJaWlXVqf1+/49thjLGfJ6IPt0mI6a1zYFEr9d7PKaZjp4l6k/Sy7K8zFr77Vjhec51vdZ6t+ea/ysvy/IVS3+0P2CtfWvbrBjWV1V1XL/f/2cMs7zYDFELUhTFOUqph2KF5zPX1NTUG7dv3/6Ez5qXqjXGfIWIPsaRJZwxr7VuhI/2FbUgc3Nzr11cXDwQLT33wZ7WWq91L3/5yrIst1lrd3LlCeb8Xmv9BsH+y7aOWpBmemOMXfYq4i+4T2v9Lq4xb7zxxg1TU1P3ceUJ5uzTWm8U7L9s6xQE+RoRfXjZK4m7YKfWuss1YlEUa5RSz3HlCeZ8RGt9m2D/ZVtHL8jMzMzFWZb9cNkribvgDq31h7hGNMacSkRPcuVJ5XQ6neO3bdt2SKq/S9/oBRm+zfoTEa1zuaAYa5RSv+z1em/jmm1CTvfu0lpfzsUkVE4qguwioq2hIIwhd3F+fv5Vg8HgXxy9JuEDVGvt5Xme38XBI2RGEoKUZXlmXdf7lVKrQ8IImV3X9Tunp6d/ztHDGNN8NnQZR5ZEhrX2Z3meXyDR27dnEoIM32al/gnyT7TWm3w36IX1xpjmwKI5uEj2pZR6n+uDmtIXmYwgO3bsOL7T6TTPIZ0uDW3U/kqpXb1e75Ojrh/+j+IfRHRcmwzhtd/UWn9AeAbn9skI0lxRURTXKKX2OF9dhIV1XZ88PT391CijGWPuTf27Idba8/I8f3CU65dYk5QgQ0l2K6Wuk4DF1XOUJ1iNMbcT0ZVcMwjlXKW1/rJQ75HaJifI8G3G3UT0/pGuOJJF1tqblFJzWus/vNxIs7OzF9V1/VUiel0ko480xqjfgxmpGeOiJAUZStI8arGBkcXYo6y1zyil7iGix5VSjxw+fPgXa9asObGqqrOH30tfT0TvHftgzA1TlaPBkKwgzfBlWd5hrb2CeT8Rx0jAWrs1z/Nkv9OTtCBDSS631t7JuKeI4iEwn2XZhm63+zBPnExK8oIMJdlkrW3++Hu9DEZ0PZrA0knVj621Hx/1tC4mmhMhyFCSM621nyKij8YEeIXNcqg5hj98+PAXBoPBvyfh2idGkCObMTs7e35VVdcqpbZMwgYlcg2NDHuqqrqp3+8n/5Tx0cwnTpAjF2eMuYSINltrz1dKnZLIL1pqYz7aPFfV6XRu2759+69SG95l3okV5OiLN8a8xVq7QSnVPCB3irV27dJbgRNcAKHmeQIVET1NRAebI2kiur+qqn39fv/Pk85nRQjyYpu4d+/eqQMHDpy4sLCwtq7rZJ8SDvkL2ul0Di0sLBy84YYbngnZJ+bsFStIzJuC2eIhAEHi2QtMEiEBCBLhpmCkeAhAkHj2ApNESACCRLgpGCkeAhAknr3AJBESgCARbgpGiocABIlnLzBJhAQgSISbgpHiIQBB4tkLTBIhAQgS4aZgpHgIQJB49gKTREgAgkS4KRgpHgIQJJ69wCQREoAgEW4KRoqHAASJZy8wSYQEIEiEm4KR4iEAQeLZC0wSIQEIEuGmYKR4CECQePYCk0RI4D8H/Q5fV5megAAAAABJRU5ErkJggg==" vertex="1" parent="WIyWlLk6GJQsqaUBKTNV-1">
          <mxGeometry x="107" y="300" width="90" height="90" as="geometry" />
        </mxCell>
        <mxCell id="2o4ibDYSHPupsS00okfa-4" value="&lt;font face=&quot;Garamond&quot;&gt;接入请求&lt;/font&gt;" style="html=1;shadow=0;dashed=0;align=center;verticalAlign=middle;shape=mxgraph.arrows2.arrow;dy=0.72;dx=45.6;notch=0;" vertex="1" parent="WIyWlLk6GJQsqaUBKTNV-1">
          <mxGeometry x="210" y="190" width="120" height="66.25" as="geometry" />
        </mxCell>
        <mxCell id="2o4ibDYSHPupsS00okfa-12" style="edgeStyle=orthogonalEdgeStyle;rounded=0;orthogonalLoop=1;jettySize=auto;html=1;exitX=0.5;exitY=1;exitDx=0;exitDy=0;entryX=0.5;entryY=0;entryDx=0;entryDy=0;dashed=1;strokeWidth=2;" edge="1" parent="WIyWlLk6GJQsqaUBKTNV-1" source="2o4ibDYSHPupsS00okfa-5" target="2o4ibDYSHPupsS00okfa-10">
          <mxGeometry relative="1" as="geometry" />
        </mxCell>
        <mxCell id="2o4ibDYSHPupsS00okfa-5" value="" style="shape=image;verticalLabelPosition=bottom;verticalAlign=top;imageAspect=0;aspect=fixed;image=data:image/png,iVBORw0KGgoAAAANSUhEUgAAAMgAAADICAYAAACtWK6eAAAAAXNSR0IArs4c6QAAExJJREFUeF7tnX1wXOV1xp9zV8aUbwdoIEAgpECAQKlkrE3BWskp0zQtTDMMzDQFdJcvN9N0Mu1MCRlb66uVTQupO50wdGoPWCtj2g502jRMyzR1zO6a4KWEJE3BoUDDNOEjJICBMOZD2nvau7LByJK99+rc3Xe1j/5+z/Oe9znnp/feu+/eFfCPDtCBOR0QekMH6MDcDhAQdgcdOIADBITtQQdcA6Rvw4ZFh7/4S8sR1gei3Dx4L4aquzzIUaGEJ7Ni3euAp95z0PAZT72nt60bfr7dTrR0BxkaKfWFHm6E4nIAx7Z78ZzfdQfkZUj4DQ3xrbrnPfTt0eEftzrjlgDyG1/ecPTkoYtvg+LGVi+Q8y0cBwRYX596Z/32W1a+2KpVpQ7IwMj4eSLyDQCntWpRnGdBO/CsAuurRf+OVqwyVUCWB1vO8cKpJ1qxEM7RdQ78XaXofz7tVacGCOFIu3TUB/BUpeiflaYTqQAysHbTKfKu9wCAc9NMntp0QIE3qkX/6LScSAeQNaXbRfHFtJKmLh3Y1wGF/Fu1OPyZNFwxByRXGL8EkG+mkSw16cDcDsh9leLwldYOpQBIaQeArHWi1KMDB3dAr6wU8/cdfFzzI0wBGQzGL9BQvtf89BxJB0wdqFaKfs5S0RSQ3JrSA1Ckci1ouWhqLVwHxJMbysHwnVYrtAWkUPoFgCOskqMOHUjgwAOVov/ZBHGzhpgB8uvB+AWLeHllVRfqzMOBd72pY3cE1786D4n3Qs0AGRgp3S7CR7sxivIygJ2qulMUOzPIPBGiHsaIX5hDe3BCGOITAlmTdIEKXFUt+vckjd83zgyQXKH0MIBPJUkq9HrOfQWHPHPc5O6sZKQfgixUoydhH0mi18ExjwJSUw1rOCSzozpyzbMdvJZ5pT6fkxgCvbVczN88rwT2BFsCEp25OiduUgIdLRfzwWxxF62Z+GiPRsBoFoqsIswKxIs7RwePf0kgNUTAKGroQa0c5N/u4PXESn1wZNxXkfFYQdFgwcbKqL8ydtwsAZaARGf1T4mbVKYuJ8f5YkxuZPzC6R0GWRVEwJwed84OHx89Rq+pohZmpPZQMPxUh69nzvRXrJo4qZ7R5+Kvz+5DQzNABgrjrwjkQ7EWo3irMuYfFitmxuDlt2w63ntbsg1oQmQh0g/g8PlodlKsQl/1IDsaO0xGasCbtXLwh2920hoOlGuuUPpPAOfHWo9ia2XMvyRWzByDzQDJFUq7ABwTM6nXKkV/ScyYgw6f/g5KY3fp1+lP9bvt0OTjETCakR2Kem17cO3Og5rm6IDcSOlBCAZjpacoV8b8oVgx3QTIzLVedNNdR/Yc6mWlcT8T3cs0oOmmr/y+0dhhPNRENDoKFN3LvGbRQGlrEJAUdpBmijawevwMr8frR6h7gelrJm4BjXmysctIWFMvs2N7MPwDF9dGQNoEyMxm6Ltxw6IjTzy0AUwYXZ5pdD+Dk1xsmpRy2g2VGrzpJ2bhpNa2/9m1P09prqZlCYgjgMxWscFgy8lAPduABtP3NID2NF3djh8ozwD6KBTf1wyerAZ+9G6Blv4REIcBmR2azUtRj3YZ3QvMr7S0Y9o72WNQbKyM+RtblQYB6TBAZjbGYPC3x2FqMhtmpF8QNj6fWegHNhX4Njzc1oodhYB0OCCz7zJ3fhJhT3/0QeYeYD7Zqv+4LZ1HdFNlNH9dmnMSkAUIyP67zB1HSHh4fz26j5m++Y92mePSbKxWaavib6pj/hfSmo+AdAEgszXPitWlj4ce3n9iBixNq8nS1hVgXbnor05jHgLSpYDMbKYr7r038/J/7c7W33/EHB2ZiX22LY0mbUYzBH5ne9H/l2bGxhlDQAjInP0SHdabzGjjskwEETDRpdmiOA3WwrE7xDt1oBwMTVnOSUAISKx+it6Q39hlpj+TiYA5I5ZAioMVOlqd46sLSaclIAQkae804j79lYljJxdLv4QRLNPfm4HgyHmJJg9+IVycWbp91dVmb18nIAQkeTvOERl9G09Qz0p0/H96lznPfJI5BK13EQJCQFLv3UuD+w97HbuyUq/vecTc+M7ML6c08Qtvez1nPxJc9YaFPgEhIBZ9FFvj4mDT6V5dopv/LBr3M1gWW2SOAPHkknIwvNVCj4AQEIs+mrdGEATeNnw0K/Xo25kSfSYTHf8/M4mwAqurRX9dktiZMQSEgFj0USoauUIpOr17aXxxvb9SzF8WP27/CAJCQCz6KBWNgWDzZyUMk3z491il6JucDCAgBCSV5rYQHVi16RTJeEl+WfZHlaL/cYscCAgBseij1DRyhdJPAXw45gS7KkU/3htu5piAgBCQmL3X2uGJGhRApeibvDEn0fx8q0lrm6SbZ0vUoARklqcNDr0Xq5sb2nrtBMTIUZdeHGe0JMoAICBGbUBAjIx0TIaAGBWEgBgZ6ZgMATEqCAExMtIxGQJiVBACYmSkYzIExKggBMTISMdkCIhRQQiIkZGOyRAQo4IQECMjHZMhIEYFISBGRjomQ0CMCkJAjIx0TIaAGBWEgBgZ6ZgMATEqCAExMtIxGQJiVBACYmSkYzIExKggBMTISMdkCIhRQQiIkZGOyRAQo4IQECMjHZMhIEYFISBGRjomQ0CMCkJAjIx0TIaAGBWEgBgZ6ZgMATEqCAExMtIxGQJiVBACYmSkYzIExKggBMTISMdkCIhRQQiIkZGOyRAQo4IQECMjHZMhIEYFISBGRjomQ0CMCkJAjIx0TIaAGBWEgBgZ6ZgMATEqCAExMtIxGQJiVBACYmSkYzIExKggBMTISMdkCIhRQQiIkZGOyRAQo4IQECMjHZMhIEYFISBGRjomQ0CMCkJAjIych8zQ6rvPqmMqrK7NPz0PmQ+EEhAjJwmIkZExZXKF8SsU8iUBzgdwZCNc8XN42CGia8pB/vsxJQnIPg6Y/BJppEdA5tOGyWIHChNfFuifHyhaVP+4PJb/q2Qz8CfYCEjSzmlz3NBIqS8UfKeZNDzF0gfH/MeaGTtzDC+xkrg2Swx3ECMjm5C5NNhw2OvhodsE2t/EcCjkkaO9t1fcH6zc3cz4fccQkLiOzTGegBgZ2YRMrlD6AoC/bmLoPkP0mkoxf3e8GF5i8RIrbsc4MH6gUPoHAS6Pl4p8tVIcvileDAEhIHE7xoHxucLEq4AuiZWK6r9WxvK/HSuGv5MOAhK3YxwYnyuUNHYainJlzB+KG8d7kLiO8R7EyLHkMgTkIN4l/Gcwmyp3kOR92rZIAkJA2tZ8nTAxASEgndCnbcuRgBCQtjVfJ0xMQAhIJ/Rp23IkIASkbc3XCRMTEALSCX3athwJCAFpW/N1wsQEhIB0Qp+2LUcCQkDa1nydMDEBISCd0Kdty5GAEJC2NV8nTExACEgn9GnbciQgBKRtzdcJExMQAtIJfdq2HAkIAWlb83XCxASEgHRCn7YtRwJCQNrWfJ0wMQEhIJ3Qp23LkYAQkLY1XydMTEAISCf0adtyzBVKLwM4NmYC91eK/mUxY8C3msR1bI7xfLOikZFNyOTWlMah8JsY+t4QhY5Wi/kgTkw0loDEdYyAGDmWXGagULpOgDvjKIinv1cO8n8fJ4aAgC+Oi9swLowfDMaP0VC+C+BjTebzrHjaWw7yrzU5/r1h3EHiOsYdxMix+ckMrh7/XfXkn5pRkVA/V16b/3ozY2eOISBJXJslhvcgRkbGkBkYmbhWRO86UIgCV1WL/j0xZD8wlIAkdW5GHAExMjKmzNDI5v5Q9C/R+Ak2PWJP+CsQqWSmJv9k27rr/zemJAHZxwG+enQ+3eNY7PJgyzky9ZZW197wQ6vUuIMYOckdxMhIx2QIiFFBCIiRkY7JEBCjghAQIyMdkyEgRgUhIEZGOiZDQIwKQkCMjHRMhoAYFYSAGBnpmAwBMSoIATEy0jEZAmJUEAJiZKRjMgTEqCAExMhIx2QIiFFBCIiRkY7JEBCjghAQIyMdkyEgRgUhIEZGOiZDQIwKQkCMjHRMhoAYFYSAGBnpmAwBMSoIATEy0jEZAmJUEAJiZKRjMgTEqCAExMhIx2QIiFFBCIiRkY7JEBCjghAQIyMdkyEgRgUhIEZGOiZDQIwKQkCMjHRMhoAYFYSAGBnpmAwBMSoIATEy0jEZAmJUEAJiZKRjMgTEqCAExMhIx2QIiFFBCIiRkY7JEBCjghAQIyMdkyEgRgUhIEZGOiZDQIwKQkCMjHRMhoAYFYSAGBnpmAwBMSoIATEy0jEZAmJUEAJiZKRjMgTEqCAExMhIx2QIiFFBCIiRkY7JEBCjghAQIyMdkyEgRgUhIEZGOiZDQIwKQkCMjHRMJleYeAHQE+OkpcCr1aJ/bJyYucYmAlRRroz5Qxbz81duLVxcoBorVk2cVM/ocwmW90yl6J+RIG6/EAJS9JdYGEkNewcGVpcuEw//HFdZIY9Ui8PZuHGzjScgBMSij1LRSNScUSaCUmXUz1sklSgHXmJZWE+NfR24+OZ7liw6ZLI3hPZCpBeKXgBnJnFJgeurRf+uJLEzYwgIdxCLPoqtsTyYOD+DsFdDrxcI+wCJgDg0ttAsAarSWx0b/p6FFgEhIBZ9dECNwWD8BAmlL1T0qWivTMNwSkoTP14p+udZaRMQAmLVS+/pXDyyqT8jXi8Eey+VIiBa8qfA6mrRX2c1GQEhIPPqpRWr7jk1lKkL1dNehfRKdA8BHD8v0eTBb2VCnLdtrf8/ySU+GElACEjTvfRbf/S1xW8ec0TW++DucE7TAmkPFHytMup/yXIaAkJA5uyni4OJM3uAZRo2doU+oPFk6QjLBjTUenLS83IPB9f8zFATBISANPqpP9hy1OKpqayILlWJLpUaMHzMstnS1BJPri4Hw1us5yAgXQrIwMj4eSLINmBofOYQPVnSHusGa4WeAHeUi/4X05iLgHQBIMu/sun4zOJMv4ZYFt1ERzfTcQ8AptF8Jpqq2ypj+U+baM0iQkAWICCDwealqGtWPZ2+b1Ccn1YDtVVXsLEy6q9MMwcC0uGArFg7cZK+q9kQ0g8N+xrHNIBj0mwaF7RV5brq2PCmtHMhIB0EyBVX3Jt5+RO7s3VBFtAL93wibXKsO+1GM9MXbPRCbHxwzH/MTPMAQgTEYUAuDu453UM9K6FGR7f7MP0hnMl5pVY0l8EcP4PId6D634D+0FP5bqvA2Js7AXEEkL5gw2GHY1FW6pIV8ZbpNAxpnVcy6N1UJB4FpKae1EJkag8Fv/+jVGaJIUpA2gTIwOrNZ4sXZhFdLikuBPBrMeq2EIY+r0DNU9QQ1mtY9JNaOQimXFsYAWkBINF3HTKHTGUhmhWVfkXj6dJxrjVDivmE0c4ACWtQ1LSuteq6a3+S4nxm0gQkBUAGg/ELUEdjd1DIMgBnm1WsM4SeBdCAIcxIbXsw/B+dkfb+WS4YQAYK468I5EMxC7G7UvQPjxnzgeHRdx0whWzoISsSPWqVpYC6el5pPkudK/ZtCGoKqWUUNW9qUe1bt3z+pTQmaodmrlCKnpbFO66v2FoZ8y+xyNfyrSY/TnJTK56eWA7yP212MUMjm/vrjUslzSICAtox55WaXeNBxj0V7QwNKHSqVh273uSbe0a5mcpE//w0lBfji8p9leLwlfHj9o+wBOQJAPGPXh/giPSKVXeeOpXxsgKvH2jcTC+DIGOx8A7R+EXjUgla0xC1yZ56bUdw/asdkvu808yNlG6C4NbYQoaf8FsC8jCAT8VeDIBwceYjJ0wufuUl7M7KnnuHBhBArBeWJZnbsZjHp3cGNC6XHhzzo386Xfm3fN3dJ3rv1F9IsniB3lou5m9OEjszxhCQ8dsA+VOLpLpE4w0AO6G6U1R2qic7JQzf6pK1z71MwWmh4DSBrEnuhV5ZKebvSx7/fqQZIEMjpXNDweMWSVGDDszHAfF0STnIvzYfjb2xZoBEggOF0usCHGWRGDXoQCIHBF+vjPqfSxQ7S5ApILk1pQf+/wnLZ6ySow4diOuAeHJDORi+M27cXONNAYk+oNNQFuxjRyvTqZOaA9VK0c9ZqpsCEiWWK5R27HkCZZkntehAEw7Y3Zyncg8yDcj4JYB8s4nVcAgdsHNA5R8rY8OX2wlOK5nvII2b9TWl20WRypf4rQ2g3oJw4AeVov+raawkHUDWbjpF3s38O6BnpZE0NenAew4o3qqM+Yel5UgqgETJDo2ULgpF7geUP5CTVvWo+1Cl6C9P04bUAJm+H9l8qSLcws9G0ixhd2qr4C+qo37qJzdSBSQqXfQKnDDUtQL9ze4sJVdt7MCzCqyvFv07jHVnlUsdkL2zDhTGAwH+AJAPt2JhnGPhOSDA+vrUO+u337IywRH4ZH60DJAoveiEprwztVIgVwM4PVnKjOoiB3YBshWqW+uZcOtDwbUtf4lESwHZt7B7vhY7GAqO8eC9GKru8iBHhRKe3EUNwKXOcMBT7zlo+Iyn3tPb1g0/326D2gZIuxfO+elAMw4QkGZc4piudYCAdG3pufBmHCAgzbjEMV3rwP8BZa0RjLjo6XAAAAAASUVORK5CYII=" vertex="1" parent="WIyWlLk6GJQsqaUBKTNV-1">
          <mxGeometry x="350" y="190" width="83.13" height="83.13" as="geometry" />
        </mxCell>
        <mxCell id="2o4ibDYSHPupsS00okfa-6" value="&lt;font face=&quot;Garamond&quot;&gt;合法用户&lt;/font&gt;" style="html=1;shadow=0;dashed=0;align=center;verticalAlign=middle;shape=mxgraph.arrows2.arrow;dy=0.72;dx=45.6;notch=0;" vertex="1" parent="WIyWlLk6GJQsqaUBKTNV-1">
          <mxGeometry x="450" y="190" width="120" height="66.25" as="geometry" />
        </mxCell>
        <mxCell id="2o4ibDYSHPupsS00okfa-16" style="edgeStyle=orthogonalEdgeStyle;rounded=0;orthogonalLoop=1;jettySize=auto;html=1;exitX=0.5;exitY=1;exitDx=0;exitDy=0;dashed=1;strokeWidth=2;" edge="1" parent="WIyWlLk6GJQsqaUBKTNV-1" source="2o4ibDYSHPupsS00okfa-7" target="2o4ibDYSHPupsS00okfa-13">
          <mxGeometry relative="1" as="geometry" />
        </mxCell>
        <mxCell id="2o4ibDYSHPupsS00okfa-7" value="" style="shape=image;verticalLabelPosition=bottom;verticalAlign=top;imageAspect=0;aspect=fixed;image=data:image/png,iVBORw0KGgoAAAANSUhEUgAAAMgAAADICAYAAACtWK6eAAAAAXNSR0IArs4c6QAAExJJREFUeF7tnX1wXOV1xp9zV8aUbwdoIEAgpECAQKlkrE3BWskp0zQtTDMMzDQFdJcvN9N0Mu1MCRlb66uVTQupO50wdGoPWCtj2g502jRMyzR1zO6a4KWEJE3BoUDDNOEjJICBMOZD2nvau7LByJK99+rc3Xe1j/5+z/Oe9znnp/feu+/eFfCPDtCBOR0QekMH6MDcDhAQdgcdOIADBITtQQdcA6Rvw4ZFh7/4S8sR1gei3Dx4L4aquzzIUaGEJ7Ni3euAp95z0PAZT72nt60bfr7dTrR0BxkaKfWFHm6E4nIAx7Z78ZzfdQfkZUj4DQ3xrbrnPfTt0eEftzrjlgDyG1/ecPTkoYtvg+LGVi+Q8y0cBwRYX596Z/32W1a+2KpVpQ7IwMj4eSLyDQCntWpRnGdBO/CsAuurRf+OVqwyVUCWB1vO8cKpJ1qxEM7RdQ78XaXofz7tVacGCOFIu3TUB/BUpeiflaYTqQAysHbTKfKu9wCAc9NMntp0QIE3qkX/6LScSAeQNaXbRfHFtJKmLh3Y1wGF/Fu1OPyZNFwxByRXGL8EkG+mkSw16cDcDsh9leLwldYOpQBIaQeArHWi1KMDB3dAr6wU8/cdfFzzI0wBGQzGL9BQvtf89BxJB0wdqFaKfs5S0RSQ3JrSA1Ckci1ouWhqLVwHxJMbysHwnVYrtAWkUPoFgCOskqMOHUjgwAOVov/ZBHGzhpgB8uvB+AWLeHllVRfqzMOBd72pY3cE1786D4n3Qs0AGRgp3S7CR7sxivIygJ2qulMUOzPIPBGiHsaIX5hDe3BCGOITAlmTdIEKXFUt+vckjd83zgyQXKH0MIBPJUkq9HrOfQWHPHPc5O6sZKQfgixUoydhH0mi18ExjwJSUw1rOCSzozpyzbMdvJZ5pT6fkxgCvbVczN88rwT2BFsCEp25OiduUgIdLRfzwWxxF62Z+GiPRsBoFoqsIswKxIs7RwePf0kgNUTAKGroQa0c5N/u4PXESn1wZNxXkfFYQdFgwcbKqL8ydtwsAZaARGf1T4mbVKYuJ8f5YkxuZPzC6R0GWRVEwJwed84OHx89Rq+pohZmpPZQMPxUh69nzvRXrJo4qZ7R5+Kvz+5DQzNABgrjrwjkQ7EWo3irMuYfFitmxuDlt2w63ntbsg1oQmQh0g/g8PlodlKsQl/1IDsaO0xGasCbtXLwh2920hoOlGuuUPpPAOfHWo9ia2XMvyRWzByDzQDJFUq7ABwTM6nXKkV/ScyYgw6f/g5KY3fp1+lP9bvt0OTjETCakR2Kem17cO3Og5rm6IDcSOlBCAZjpacoV8b8oVgx3QTIzLVedNNdR/Yc6mWlcT8T3cs0oOmmr/y+0dhhPNRENDoKFN3LvGbRQGlrEJAUdpBmijawevwMr8frR6h7gelrJm4BjXmysctIWFMvs2N7MPwDF9dGQNoEyMxm6Ltxw6IjTzy0AUwYXZ5pdD+Dk1xsmpRy2g2VGrzpJ2bhpNa2/9m1P09prqZlCYgjgMxWscFgy8lAPduABtP3NID2NF3djh8ozwD6KBTf1wyerAZ+9G6Blv4REIcBmR2azUtRj3YZ3QvMr7S0Y9o72WNQbKyM+RtblQYB6TBAZjbGYPC3x2FqMhtmpF8QNj6fWegHNhX4Njzc1oodhYB0OCCz7zJ3fhJhT3/0QeYeYD7Zqv+4LZ1HdFNlNH9dmnMSkAUIyP67zB1HSHh4fz26j5m++Y92mePSbKxWaavib6pj/hfSmo+AdAEgszXPitWlj4ce3n9iBixNq8nS1hVgXbnor05jHgLSpYDMbKYr7r038/J/7c7W33/EHB2ZiX22LY0mbUYzBH5ne9H/l2bGxhlDQAjInP0SHdabzGjjskwEETDRpdmiOA3WwrE7xDt1oBwMTVnOSUAISKx+it6Q39hlpj+TiYA5I5ZAioMVOlqd46sLSaclIAQkae804j79lYljJxdLv4QRLNPfm4HgyHmJJg9+IVycWbp91dVmb18nIAQkeTvOERl9G09Qz0p0/H96lznPfJI5BK13EQJCQFLv3UuD+w97HbuyUq/vecTc+M7ML6c08Qtvez1nPxJc9YaFPgEhIBZ9FFvj4mDT6V5dopv/LBr3M1gWW2SOAPHkknIwvNVCj4AQEIs+mrdGEATeNnw0K/Xo25kSfSYTHf8/M4mwAqurRX9dktiZMQSEgFj0USoauUIpOr17aXxxvb9SzF8WP27/CAJCQCz6KBWNgWDzZyUMk3z491il6JucDCAgBCSV5rYQHVi16RTJeEl+WfZHlaL/cYscCAgBseij1DRyhdJPAXw45gS7KkU/3htu5piAgBCQmL3X2uGJGhRApeibvDEn0fx8q0lrm6SbZ0vUoARklqcNDr0Xq5sb2nrtBMTIUZdeHGe0JMoAICBGbUBAjIx0TIaAGBWEgBgZ6ZgMATEqCAExMtIxGQJiVBACYmSkYzIExKggBMTISMdkCIhRQQiIkZGOyRAQo4IQECMjHZMhIEYFISBGRjomQ0CMCkJAjIx0TIaAGBWEgBgZ6ZgMATEqCAExMtIxGQJiVBACYmSkYzIExKggBMTISMdkCIhRQQiIkZGOyRAQo4IQECMjHZMhIEYFISBGRjomQ0CMCkJAjIx0TIaAGBWEgBgZ6ZgMATEqCAExMtIxGQJiVBACYmSkYzIExKggBMTISMdkCIhRQQiIkZGOyRAQo4IQECMjHZMhIEYFISBGRjomQ0CMCkJAjIx0TIaAGBWEgBgZ6ZgMATEqCAExMtIxGQJiVBACYmSkYzIExKggBMTISMdkCIhRQQiIkZGOyRAQo4IQECMjHZMhIEYFISBGRjomQ0CMCkJAjIych8zQ6rvPqmMqrK7NPz0PmQ+EEhAjJwmIkZExZXKF8SsU8iUBzgdwZCNc8XN42CGia8pB/vsxJQnIPg6Y/BJppEdA5tOGyWIHChNfFuifHyhaVP+4PJb/q2Qz8CfYCEjSzmlz3NBIqS8UfKeZNDzF0gfH/MeaGTtzDC+xkrg2Swx3ECMjm5C5NNhw2OvhodsE2t/EcCjkkaO9t1fcH6zc3cz4fccQkLiOzTGegBgZ2YRMrlD6AoC/bmLoPkP0mkoxf3e8GF5i8RIrbsc4MH6gUPoHAS6Pl4p8tVIcvileDAEhIHE7xoHxucLEq4AuiZWK6r9WxvK/HSuGv5MOAhK3YxwYnyuUNHYainJlzB+KG8d7kLiO8R7EyLHkMgTkIN4l/Gcwmyp3kOR92rZIAkJA2tZ8nTAxASEgndCnbcuRgBCQtjVfJ0xMQAhIJ/Rp23IkIASkbc3XCRMTEALSCX3athwJCAFpW/N1wsQEhIB0Qp+2LUcCQkDa1nydMDEBISCd0Kdty5GAEJC2NV8nTExACEgn9GnbciQgBKRtzdcJExMQAtIJfdq2HAkIAWlb83XCxASEgHRCn7YtRwJCQNrWfJ0wMQEhIJ3Qp23LkYAQkLY1XydMTEAISCf0adtyzBVKLwM4NmYC91eK/mUxY8C3msR1bI7xfLOikZFNyOTWlMah8JsY+t4QhY5Wi/kgTkw0loDEdYyAGDmWXGagULpOgDvjKIinv1cO8n8fJ4aAgC+Oi9swLowfDMaP0VC+C+BjTebzrHjaWw7yrzU5/r1h3EHiOsYdxMix+ckMrh7/XfXkn5pRkVA/V16b/3ozY2eOISBJXJslhvcgRkbGkBkYmbhWRO86UIgCV1WL/j0xZD8wlIAkdW5GHAExMjKmzNDI5v5Q9C/R+Ak2PWJP+CsQqWSmJv9k27rr/zemJAHZxwG+enQ+3eNY7PJgyzky9ZZW197wQ6vUuIMYOckdxMhIx2QIiFFBCIiRkY7JEBCjghAQIyMdkyEgRgUhIEZGOiZDQIwKQkCMjHRMhoAYFYSAGBnpmAwBMSoIATEy0jEZAmJUEAJiZKRjMgTEqCAExMhIx2QIiFFBCIiRkY7JEBCjghAQIyMdkyEgRgUhIEZGOiZDQIwKQkCMjHRMhoAYFYSAGBnpmAwBMSoIATEy0jEZAmJUEAJiZKRjMgTEqCAExMhIx2QIiFFBCIiRkY7JEBCjghAQIyMdkyEgRgUhIEZGOiZDQIwKQkCMjHRMhoAYFYSAGBnpmAwBMSoIATEy0jEZAmJUEAJiZKRjMgTEqCAExMhIx2QIiFFBCIiRkY7JEBCjghAQIyMdkyEgRgUhIEZGOiZDQIwKQkCMjHRMhoAYFYSAGBnpmAwBMSoIATEy0jEZAmJUEAJiZKRjMgTEqCAExMhIx2QIiFFBCIiRkY7JEBCjghAQIyMdkyEgRgUhIEZGOiZDQIwKQkCMjHRMJleYeAHQE+OkpcCr1aJ/bJyYucYmAlRRroz5Qxbz81duLVxcoBorVk2cVM/ocwmW90yl6J+RIG6/EAJS9JdYGEkNewcGVpcuEw//HFdZIY9Ui8PZuHGzjScgBMSij1LRSNScUSaCUmXUz1sklSgHXmJZWE+NfR24+OZ7liw6ZLI3hPZCpBeKXgBnJnFJgeurRf+uJLEzYwgIdxCLPoqtsTyYOD+DsFdDrxcI+wCJgDg0ttAsAarSWx0b/p6FFgEhIBZ9dECNwWD8BAmlL1T0qWivTMNwSkoTP14p+udZaRMQAmLVS+/pXDyyqT8jXi8Eey+VIiBa8qfA6mrRX2c1GQEhIPPqpRWr7jk1lKkL1dNehfRKdA8BHD8v0eTBb2VCnLdtrf8/ySU+GElACEjTvfRbf/S1xW8ec0TW++DucE7TAmkPFHytMup/yXIaAkJA5uyni4OJM3uAZRo2doU+oPFk6QjLBjTUenLS83IPB9f8zFATBISANPqpP9hy1OKpqayILlWJLpUaMHzMstnS1BJPri4Hw1us5yAgXQrIwMj4eSLINmBofOYQPVnSHusGa4WeAHeUi/4X05iLgHQBIMu/sun4zOJMv4ZYFt1ERzfTcQ8AptF8Jpqq2ypj+U+baM0iQkAWICCDwealqGtWPZ2+b1Ccn1YDtVVXsLEy6q9MMwcC0uGArFg7cZK+q9kQ0g8N+xrHNIBj0mwaF7RV5brq2PCmtHMhIB0EyBVX3Jt5+RO7s3VBFtAL93wibXKsO+1GM9MXbPRCbHxwzH/MTPMAQgTEYUAuDu453UM9K6FGR7f7MP0hnMl5pVY0l8EcP4PId6D634D+0FP5bqvA2Js7AXEEkL5gw2GHY1FW6pIV8ZbpNAxpnVcy6N1UJB4FpKae1EJkag8Fv/+jVGaJIUpA2gTIwOrNZ4sXZhFdLikuBPBrMeq2EIY+r0DNU9QQ1mtY9JNaOQimXFsYAWkBINF3HTKHTGUhmhWVfkXj6dJxrjVDivmE0c4ACWtQ1LSuteq6a3+S4nxm0gQkBUAGg/ELUEdjd1DIMgBnm1WsM4SeBdCAIcxIbXsw/B+dkfb+WS4YQAYK468I5EMxC7G7UvQPjxnzgeHRdx0whWzoISsSPWqVpYC6el5pPkudK/ZtCGoKqWUUNW9qUe1bt3z+pTQmaodmrlCKnpbFO66v2FoZ8y+xyNfyrSY/TnJTK56eWA7yP212MUMjm/vrjUslzSICAtox55WaXeNBxj0V7QwNKHSqVh273uSbe0a5mcpE//w0lBfji8p9leLwlfHj9o+wBOQJAPGPXh/giPSKVXeeOpXxsgKvH2jcTC+DIGOx8A7R+EXjUgla0xC1yZ56bUdw/asdkvu808yNlG6C4NbYQoaf8FsC8jCAT8VeDIBwceYjJ0wufuUl7M7KnnuHBhBArBeWJZnbsZjHp3cGNC6XHhzzo386Xfm3fN3dJ3rv1F9IsniB3lou5m9OEjszxhCQ8dsA+VOLpLpE4w0AO6G6U1R2qic7JQzf6pK1z71MwWmh4DSBrEnuhV5ZKebvSx7/fqQZIEMjpXNDweMWSVGDDszHAfF0STnIvzYfjb2xZoBEggOF0usCHGWRGDXoQCIHBF+vjPqfSxQ7S5ApILk1pQf+/wnLZ6ySow4diOuAeHJDORi+M27cXONNAYk+oNNQFuxjRyvTqZOaA9VK0c9ZqpsCEiWWK5R27HkCZZkntehAEw7Y3Zyncg8yDcj4JYB8s4nVcAgdsHNA5R8rY8OX2wlOK5nvII2b9TWl20WRypf4rQ2g3oJw4AeVov+raawkHUDWbjpF3s38O6BnpZE0NenAew4o3qqM+Yel5UgqgETJDo2ULgpF7geUP5CTVvWo+1Cl6C9P04bUAJm+H9l8qSLcws9G0ixhd2qr4C+qo37qJzdSBSQqXfQKnDDUtQL9ze4sJVdt7MCzCqyvFv07jHVnlUsdkL2zDhTGAwH+AJAPt2JhnGPhOSDA+vrUO+u337IywRH4ZH60DJAoveiEprwztVIgVwM4PVnKjOoiB3YBshWqW+uZcOtDwbUtf4lESwHZt7B7vhY7GAqO8eC9GKru8iBHhRKe3EUNwKXOcMBT7zlo+Iyn3tPb1g0/326D2gZIuxfO+elAMw4QkGZc4piudYCAdG3pufBmHCAgzbjEMV3rwP8BZa0RjLjo6XAAAAAASUVORK5CYII=" vertex="1" parent="WIyWlLk6GJQsqaUBKTNV-1">
          <mxGeometry x="575" y="190" width="90" height="90" as="geometry" />
        </mxCell>
        <mxCell id="2o4ibDYSHPupsS00okfa-8" value="&lt;font face=&quot;Garamond&quot;&gt;公司员工&lt;/font&gt;" style="html=1;shadow=0;dashed=0;align=center;verticalAlign=middle;shape=mxgraph.arrows2.arrow;dy=0.72;dx=45.6;notch=0;" vertex="1" parent="WIyWlLk6GJQsqaUBKTNV-1">
          <mxGeometry x="680" y="193.75" width="120" height="66.25" as="geometry" />
        </mxCell>
        <mxCell id="2o4ibDYSHPupsS00okfa-10" value="" style="shape=image;verticalLabelPosition=bottom;verticalAlign=top;imageAspect=0;aspect=fixed;image=data:image/png,iVBORw0KGgoAAAANSUhEUgAAAMgAAADICAYAAACtWK6eAAAAAXNSR0IArs4c6QAAHM5JREFUeF7tXQmYJUWRjqjXPbPMcCtyDCKeCCpyyCGKLsrlKroIwyWHBzQwTndlvgbkEBwUBYbuV1Gv52BnuQQRuVFAUFAQBAQVVBZFDnEV3PEeBPxm2n4VW4lvtBn7yKzKeq+OzO/rb+b7OiIyIjL+zsorAsE15wHngUk9gM43zgPOA5N7wAHERYfzwBQecABx4eE84ADiYsB5IJkH3AySzG9aXH19fb3rrLPOeqOjo+v19vauG0XRejNmzHhs4cKFv9ES4Ii67gEHkJRD4Pv+Vp7n7RFF0d6IuDkArIeI6zLzegCw1iTiX0DEx5j5cfVvFEWP12q1x1atWvX44sWL/5hSJcdu0QMOIIbOFEJsiYi7RVG0OyLuBQCvNRQxHfnDzHy553nXBkHwxHTE7vfZesABRMO/AwMDOyLiRxQwAGAXDRZbJHcBwDWIeIsDiy2XmslxAJnCXwoYnuf1AYD66Xa7JQbnLStXrrzy/PPP/123lalK/w4gE4x0zoCxpoZPMjOFYbioKkHaTTsdQMZ5P+fAWDNO7kbEIAiC67sZQGXv2wEEAObPn79ZT0/PZ3LyKWUUc8z8FQBQM8r9RoyOWMsDlQeIlHI/ADiHmbfR8lg+iSIFklarFYyMjDydTxWLqVWlASKlPJOZzyjm0E2o9WOe5x3XaDTuKJFNXTWlsgDxff9mRPyPrno/g86Z+a+IeBwRXZaB+MqJrBxA1Mk3In4HADYu+WifSkRnl9zGzM2rFECEEB8HgAsz92p+OiAikvlRp3iaVAYg9Xr9mCiKlhVviNJpjIhfCoLgiHRSqstdCYBIKXdm5ipvg36DiPatbpgnt7z0AJFSvoaZn0zuonJwIuJwEAQnlMOazllRaoD09fWtN2vWrIfjdccrO+fS/PaEiO8KguDu/GqYP81KDRAp5XXMvH/+3N49jUZHRzddsmTJ8u5pUKyeSwsQIcT5AHBssYajI9reSUR7dKSnEnRSSoAIIc4CgNNKMD6ZmMDMZ4VheHomwksmtHQAkVK+m5nvLNk4ZWHOke60fXq3lg4gQogbAOBD05teeYrnmHkvdwt46jgoFUCEEIcCwJcrH/r6DriRiD6oT149ytIAZO7cubU5c+bcBwA7VW8Yk1vsed5+jUbjpuQSys1ZGoAIIdQh2HnlHq5MrHOzyBRuLQVABgYGtkDE+xBxs0xCqORC3Swy+QCXAiBSygYzu1uryYHsZpFJfFd4gNTr9TdEUfTz5LHhOJUH3CwycRwUHiBSykFmHnJhntoDbhaZwIWFB4gQQh0Kvjt1eDgBbhYpG0AGBwe3abVaj7jYtuaBC4joGGvSSiCo0DOIEGIBAKh8Vq7Z8cDDRLStHVHlkFJogEgpH2Tm7csxFPmwYmxs7DWLFi16Kh/adF+LwgLEfV5lFjyHE9HlmUkvmODCAsR9XmUWaYuJaH5m0gsmuMgAUUkYdi6Yv4ug7g+IyN1na49UYQEipfwTM29QhIgrmo49PT1rDw0NvVA0vbPQt5AA6e/v36hWq7kiMllERLwtyMx7h2F4W0biCyW2kACp1+uqRuA9hfJ0sZQ9k4jUFnrlWyEBIoT4KABcXPnRy8gB7cI89YzEF0psIQHi+/7nEfHUQnm6WMpeRESfKJbK2WhbSIAIIa4GgAOzcYmTioiqBLXzLwAUFSA/AoC3ulDOzAO3E5GqAV/5VlSA/BUA1qr86GXngO8TkTtjKvAM8nz8/nx2dvFRbcmI+FgQBFtV2wt/t76QM4jv+8+49+eZhu9viWiTTHsoiPBCAkQI8VMA2LogPi6cmoi4MggC9wlb4BlEZTDZtXCRVxyF/0hELy+OutlpWtQZ5FYA2Cc7t1RbMjN/LwzDt1fbCwVegwghrgSAg9wAZuaBS4noqMykF0hwIWcQKeUyZnZvpzMKNGY+PQxDVUKi8q2QABFCqBSjrt5eRuGLiAcHQXBVRuILJbaQAPF9fwARw0J5ukDKtlqtHUZGRh4qkMqZqVpIgMRrELXFq7Z6XcvAA+7B1D+dWkiAKPWFEL9y1Wvto4OZfxOG4Rz7kospsbAAkVJewMzuSrb9uHNFPsf5tLAA8X3/cES8zH58VFtiFEXHN5tNVSHYtaKepKuRk1K+hpmfdKNo1wPMvEkYhr+1K7W40go7g7TXId8HgLcV1/350pyZb42Ler4vX1p1V5uiA4QAwO+uC0vV+zFEdEGpLEppTKEBIqU8iJnVtRPXLHjA87wtGo3Gry2IKo2IQgOkXdlWHWi9pTQj0j1DXAGdCXxfaIC0F+uSmRvdi6vS9DyfiBaXxhpLhhQeIEKI9QFAzSJbWvJJJcUg4uuDIHiiksZPYXThAaJs833/DEQ80w1uYg8MEdGJiblLzFgKgNTr9Ve2Wq2HEPFlJR6rrEz7xejo6DuWLFmyPKsOiiy3FABRA+CuwCcOw3lEtDQxd8kZSwOQ/v7+bWq1mlqLzCj5mNk0zyWIm8abpQFIexZRd4iOtRlBZZYVvz3fN357/o0y25jWtlIBpL+/f/NarXY7ALikZ9NHxjIicn9MqjSDKFvr9foBURRdM318VJriD1EU7dZsNh+vtBc0jC/VDLLaXrdgn3rkmfnoMAwv1IiPypOUEiBz586dMWfOHPWptXvlR3gNBzDzF8IwPM35Rc8DpQSIMl1KuTMz3wwALkPgP2PhCiI6TC80HJXyQGkB0gaJu+37zzi/n4hculZD3JcaIMoXvu8fi4hVf0L6u/gwcGPD2HDkZZ9BVo+w7/ufQsRzqjriPT09Gw8NDbmy2QkCoPQzyDiQHBPXFFmWwEeFZkHEnYIg+EGhjeii8pUBSHtNsicz39ZFf3ey61+tWrVqu6VLl/65k52Wra9KAUQNnhBCpfW/Iq6z/qqyDeY4expENFhi+zpmWuUA0l64b4uIi8p4TuJ53oGNRuPajkVQyTuqJEDUmC5YsGDGihUrPgcAJ5VhjJn5WwBwShiGKhWSa5Y8UFmAjFu8H9B+jfgmSz7thpilzHymS/hm3/WVB0h7XaLes38GAD5q38WZS/xlvF1/JhFdknlPFeyg0gDxfV+tRWRBgbFmuDqgZADgSgJESrk3Mx8OAEdk4NNui1RA+fwzzzxz8dVXX93qtjJF779SAGlv8aoZY27RB05DfwWUcObMmRefe+65z2rQO5IJPFAJgKiXhp7n1dufU1ULhF8i4oW9vb3hwoULn6ua8WntLT1ApJQq82IdADZP66yC898fRdEpzWbzjoLb0VH1SwuQer2+fRRF5wLAXh31aL47U2uSk4loKN9q5ke7UgIkrl/4cQBQ4HCPpSaOtSuJ6JD8hGF+NSkVQPr6+mbNnj37XGaen1+X50azJ1qt1kGu3PPU41EagEgp38bMqqDOO3ITgsVQxGVWnGKcSgEQIcSHAWAJALhXc8lAeSkRHZWMtdxchQdIe73hUtiYx+ld7bcxt8V1Ce83Z68GR6EB0t7CdcVz9GL19wCgUiF9u6en51tDQ0NP6bFVm6qwABFCqMuFC6o9fFrWL1Ppj3p7exUoXtDicET/8EAhAeL7fqOip+ImobssiqJlzWbzhyZMjvalHigcQIQQar2hzjlcm9gDDhgWI6NQABFCXA0AB1q0v0yiHDAyGM3CAEQI8U13bWTCCHDAyAAYq0UWAiBSSrXQPCZDPxRR9I/aLwlvKKLyRdE59wCRUh7FzO456UsjSt0YUM9sVxQl0IqqZ64BUq/XPxBF0Y1FdW4Gev8PAJxORG7WyMC5E4nMLUAGBgZ28zzvng75IffdMPMdnucdHQTBLzqp7ODg4Mv/9re/bVKr1TaJomiTOBH4Jqp/Zl7ued7yVqu1vLe3d/nw8PAfOqlXp/rKJUD6+/tfW6vVVG0PV2vw75FwFREdnGVQtOs7qoJDewLAtgCggKB+ejT7HQMAVWt9OTM/gIhXE9Gdmry5JcslQOJsI9ch4v659VpnFfs0EX3edpftZ8gqDevbEfE9APBW230AwO+ZWW3N3xJF0W0jIyOrMugjU5G5A4i7QvKS8d7D9l9hIcTR7YNWBY5ONnUX7GZ1QTIMwy93suM0feUKIFLK/Zn5ujQGlYjXKjiEEEcg4nHMvFsOfPRA/DRhaRGS3eUGIO11hypq/9ocDGC3VbAGDinlQfG6QAFjj24bNUH/d7eBorLt57LlBiBu3fGP+LACDinlh9rA2DeXkfdSpdQ1fDWj5O7rIRcA8X1/HiIuLsBAZqqi53n7NRqNm9J00tfX1ztr1qwgXiB/Mo2cLvHe7HneWY1G43td6v9fuu06QNSnled5d8Xl0TbLi1O6oYfneX6j0Wim6buda1iBQ+1KFbU9q54yBEFwcR4M6DpApJQXMfPH8uCMbunAzOfHpQuOT9O/7/sHI6J6XVmKPzTMfF4Yhl2v3dJVgEgpD2Hm3C7Q0gSsLi8i3rtq1ap9lixZ8rwuz5p0Jd4av5GIPpjULzb4ugYQKeWG8c7KdwDgzTYMKaoMRNwrCAK1SDVuQohNAUB9UmV1yv44ADwa36R+xvO8ZwDgxZ9Wq7UhAGyJiKrOo6qt8uJPXGr734yNmJ7hiRUrVrzlkksuWTk9qX2KrgFECPFZdfHOvkmFkhjGN3JFUo2FED9uXwtJKmJNvm+qayKe5z0QRdEDphWrpJQ7M/M+AKB+bOcn256I1BX/jrauAGT+/Pmv7unpUYdFVU4N+mRvb+87zzvvPHV/ybgJIVRWEvWXO21TZxFq50x9zvwsrbDV/IODg68aGxvbExHfCwCH2pDb29u7aVJ/Je2/KwCRUi5k5hOTKl0SvmOI6IIktggh1A5P2nJxNyPiZ4MgUH+oMm2+7++CiPMA4MiUHb0QJ95eO6UMI/aOA6S/v3+bWq2mBmW2kablIv4aEamDPOMmpfwEMycC1rjOziAiVeG3o61er+8RRZECSpq8Aol9l8TYjgNESjlS9eTSURTt2Ww2VdlmoyaEeB8AfN2IaRwxM9/red5BQRCoxXbXmhDi/Yj4OWbePqESpxLR2Ql5jdg6CpCBgYEd1QIQADwjLctFfAERGb+vbx8CqkV5qsbMh4RheGUqIRaYTzrppM1WrVp1aXuNkkTikUR0WRJGE56OAsTNHvBCFEW7NptN9XRWu6lXfWNjYzci4q7aTFMQIuJHgiDIxZVzIYQCq7pQadziGxjvaTQamVbM6hhA2rd1HwKAdYw9URIGZv5CGIanmZojpbyGmQ8w5ZuGviN/gXV0llKqz61P69CuQfOYeuyV5SdjxwDizj2g1Wq1thoZGXnSJBCEEGpBq17lZdE+lpc3Gb7v7xPPkLcmMPJsIjo1AZ8WS0cAcvLJJ2+wcuVKdcizhZZW5ST6anzQ9Z+mpgkh1CfEv5vy6dIz89FhGOaifITv+x9ExK/q6t6me65Wq+08PDz8qCGfFnlHACKEUKfF6kpElZvxuYeU8mPMfFEHnHYsES3rQD/TdiGEUJc2VTEkk7aYiDIpu9cpgKi1x3YmFpeM9i+9vb1bmZwCz507tzZnzhy147dDh3yRm1JsQojzAOAEE7sRcZcsDj0zB4jv+3MR8SoTY8tGi4hfDoLgIyZ2SSn9ds1FEza1VplrwjCelpn7wzBclJTfJp8QQn1qmdzkzaSMXOYAEUIocCQeNJtO76Iso8Xw8ccfv8HMmTNVWbTX6+qMiF8KguCItP628XBLV+ep6Hzffxciqtve2i3pAexUHWQKkMHBwW1ardYj2haWlBARNzfZipRSfpqZja6CIOLLgiD4k3JhWpAgYj0Igq6vGYUQ6oVlv25YIOL1QRCogq7WWqYAidfmqkSaKpVW5XYnERllFBFCqB0Z7aySzFwPw/AlAZ0WJABwYnwxcKibA6duBLdarXsNX0nuGD+yetCW3lkDRJ0Yv8mWsgWVY3RvSEq5OzPfZWDrj9dff/2dFyxYMLomT1qQMPPJYRiea6CLdVIhRD0+XB42EGwV2JkBxC3O/z6ktVpta5M9+gSz7nwimjQjTFqQIOJpQRB8wSBArZPGh6Xaf2iZ+da4rLW61GmlZQYQIYSq6VH14vS/IaI5JiMlhFCzh0oirdOeBYCtiej/piJOCxIA6Mr1+NU2mfzRQMTRsbGxjUZGRv6i48DpaDIByIIFC3pWrFih0vS/cjoFSv57o6QDJ5xwwivGxsZ+q+sTZr44DEOtgqYWQKIK9nSl7LbpZg8iHhwEgZWjhUwAIqXcm5lVGtGqN6Og8n3/SET8oq7TTBPNpQUJM58VhmFX8ggY6n4REX1C149T0WUFkHOY+VM2FCyyDNMAllJezsyHadr8EyIyLllgGGgTqZLp5cDJbDdc0z5NRFa+XjIBiBBCXZHYSXOgy0y22XTrg/HGCyH+CAAqpY5OW0BEZ+oQrkljASQLiajjfwDje1rq8/MVOjYz81vDMPyJDm1HZxAp5VuYObViaQ3LAf/zRKT99qWdJ0wBRKulfRmYFiTMPByGodF9KS3DpiCSUt7OzCpLyrQNET8cBMH10xJOQ2B9Bkl4hyitHXnkf4KItK+KtJNZaN86qNVqbxoeHv5pGsPTggQAiIhkGh1MeIUQqrqvr8ODiMcHQXC+Dm1HZxDf969AxEPSKlYC/ruJ6F26dsTbuyrhtG4ih2fjyFxfV/ZUdGlBgojNIAi0gjatvoabGEYbJJPpZn0GEUI84YrgvOhuVcRS+6217/uHIeLlOkHEzN8Lw9BaCbW0IAGAzN5jjPfH4ODgG1utllZyOxsJwVXfVgEipXwdM6t8rq4BjBDRgK4jDK9U/BcRHacrW4cuLUhsBeR0usaJunk6GvX7eJF+fbxIT31x0SpAhBDqzcOXdAyoAI3RFC+EUHeedNP9G8nW9XVakCDifwdB0KfbXxI6XYCorPlBEKTOD2wbIEbXk5M4qEA8RkEshFAHhLqpOY1km/gsLUjivAPWDukm0lsXIADwJBG9zsT2iWhtA0SVztolrVIl4TcKYiGEunmwt6btRrI1Zf6DzAJIvkhEaXMHT6i2AUCMttkn85FtgGh9H5oOWEHpjYLYsIipkewk/ksLktUvHJP0PRVPYQFiKzWmbYd2UZ5REPu+v1TVMdfU10i2psx/IUsLkvjR1xVEpHt1RktNA4AYnUNlPoO4Bfq/uNgoiA2vdJ8bBMHJWhGVksgCSK6K645YqYBluEv6XSLSfTYwqZesfWIZ7sKkHLZCsC+L72Edq6uplPI4Zl6qSX8NEXUsEYYFkFjR1zC7vZU+bQJEpeW39pJLM1DyTGb0FkRKuT8zX6djEDM/FIZhp/JlvahSWpAg4rVBEKSpC6J0UAkctEplI+KiIAi0Ez504hPraQAwej2nEwwFpvkhEb1NV/+BgYHdPM+7R5P+L0S0niatNbK0IEl7eGeS5YSZTw/D8Ky0xluZQUxvoqZVuiD8Rs9t29nv1TUdrVar1TYaHh7+gxaxRaK0IIkzbN5ARPsnUUkIYfKVYpzqdSKdrABECKGSK2dapyGJQ7vNE7/X0PbvvHnz1p4xY8ZzujrHyQl2jZMTqORyHW8WQGJcRq2dinWVyoOhYzAz7xeGoSpOmqppD+BUvUgpD2NmrYt2qbQtGHOr1dphZGRE5SXWakKInwPAG7SIAYx2yTRlapNZAInpGu1DzHyDtoIARo/VJpNrBSC+75+IiAsNlK8EKSJ+PAgCVZFWq0kph5h5UIsY4BEierMmbSZkFkByMxF9QEc5w8q+Ruu/qfq3AhAhhMrqp0ocuPZSD5je6DV5E6J62o2I7uum09OCBBG/HgTB+6eyob+/f91arfZrAFhX01Zrs6stgCSuM6dpcFHJjB5NXXXVVbV77733z7pl6hCxYweGUw1AWpBMl+zN5K1MW893EpHujuCUsWULIN8FgNRXi4uKgin0Nr4wJ4RQxTUP1fFF/HLz0SAIttahzZomLUgA4BtEtO9Eegoh1GJ7yllmHJ/R7uF0frECECnlL5j51dN1VsXfm+42+b5/DCJqV3tiZj8MQ63Ds6z9bwEktxHRS240J6jRaPW6vRWACCFWAsDMrAegoPKNvofr9foboihSu1m67clarbZrN85EJvlrn7YezO3x59Feq2XHdUK+HdcJ0c6Oz8xHhWF4qa7zpqOzBRB3zX1yT99PREb1zeOKr/cZ1kT/HBGdMd1gd+r3FmaSbxPRe4UQ6k2J9i6gsq9Wq205PDz8v7ZsdQCx5cmp5WwT32jVSjagxCQo3vlsexbJpNJrEhelBQki3sHMswwf4FlPHuEAkmT0DXmSrBMSlH9eSkTzDFXLlDwtSAyVy6QctAOI4SgkJL+PiHYz4U2wOAVEPCUIgnNM+smatoMgySRnsANI1hHSlu953oGNRuNak+6EEF8DgP1MeJLMVibyk9B2ACTPtMtAP5NEv6l4HEBse3RyecYX9JKWkWDmd4dhaFLGLXMvZAwSozJ3JsY6gJh4KyVtksAVQqg8Y0Y11pWao6Oj6yxZsuT5lCpbZc8CJHES70dnzpy588KFC7VvQpsYZQsg6nqElVyxJsoXjRYRLwyC4GgTveN0QCrFqKr0atxGR0c3XbJkyXJjxgwZMgDJlDUa05piCyDqSvd2aZWpAn+SYvdSysQFiVqt1ttHRkZUvrLcNIsgmfR6ii1jrQDE9/3FiJirLUZbDrItZ7qLeZP1J4S4GgASvemOT+YPbTabX7FtSxp5FkDydK1W2ydtCYjpbLACENWJEOJ3cZbvjabr0P3+RQ8cQERaCRrG+0tK+SAzb5/Eh1EUndJsNnOzBZy2jgwzHxSGofqjkWmzBhClpWHys0wNy7nwx4hoK1Md58+fv1lPT486kdd9F7FmF99l5mYnAmsy2+r1+h5RFKn0Rsb2j5NpdL/N1M/j6a0CpA2SuZ7n7cLMO6ZRrAK86tbpZaZ2plm0j+vrBs/zmo1Go2N5BHzf3wkRPwkAR5navAa9Ud2VlH3ZrQ+SVhnHr+cBKeUhzHyFHvWUVBcw8zVxMZ5MSnb39fXNWmuttT6MiCqLSepaHdCFZ8bWZxALg+ZEaHhASnkyM5+tQapD8ggi3tRqtW5qNpvq8VuqJqXcPS7k+iIwmPlVqYSNYzbJEmOrTwcQW57sghzf9w9GRNu7Uw8w88MA8DPP8x4eGxt7aGRk5PeTmdff3799T0/PdnFWyG0BYOtYnzfaBEW73zuJSPtNiM2hcACx6c0uyBJCqPMn7dRCCVVUWTOfQsS14/LP6zDz2ur/AKB+sm4dW5BPZIgDSNbD2wH5UkqV8vXGpFvAHVAxUReIeHAQBOqFYteaA0jXXG+34/7+/pk9PT1q0X24XcldkfbLKIqOsLEeSqu9A0haD+aMvwQ5yr7Z09Nz3NDQ0FN5cK0DSB5GwbIO7Voj6syhq5kXTcxCxD9HUbQ4iqKzRkZGVA7eXDQHkFwMg30l1BnE7NmzP8nM8+PKs1vY78GaxBYALFLgaDabj1uTakmQA4glR+ZVTHz9Z2MAmO95ngLLBnnSM94OvlgVuiGiB/Ok13hdHEDyOjKW9RoYGHi9AokCi24JAcsqjBd3TXyxVWUguTPDPqyIdgCx4sbiCInfue+AiCrF53uY+b0d1FzNEioJ3LeCILi1g/2m6soBJJX7is08b968TWbMmKHAotJ9KrC8wpZFiDgaRZECxG2tVuvWkZGRn9qS3Uk5DiCd9HbO++rv79+1VqvtG1fbVeuWjT3P23j1/yc5NY8AQD3pXR7XeF/OzC/+22q17tlwww1vXbBggfp9oZsDSKGHr3PKqxJxtVptY0RUP8/39vYuHxoaUo/kSt0cQEo9vM64tB5wAEnrQcdfag84gJR6eJ1xaT3gAJLWg46/1B5wACn18Drj0nrg/wHYRCJfC/NkegAAAABJRU5ErkJggg==" vertex="1" parent="WIyWlLk6GJQsqaUBKTNV-1">
          <mxGeometry x="353.13" y="310" width="80" height="80" as="geometry" />
        </mxCell>
        <mxCell id="2o4ibDYSHPupsS00okfa-13" value="" style="shape=image;verticalLabelPosition=bottom;verticalAlign=top;imageAspect=0;aspect=fixed;image=data:image/png,iVBORw0KGgoAAAANSUhEUgAAAMgAAADICAYAAACtWK6eAAAAAXNSR0IArs4c6QAADgtJREFUeF7tnX+MHGUZx593rlQFjImiTfwBRPQPSAUVjSlJb7cFe0SwoTEqCvbmKqYxKAkJTUi5287NHtYoEn9A4g/a2yvFKIloIQaBFnYWwR+hSIiFP4QEpZjYipGIFQo3jzl6wLXc7cz3nZm9fWe+/fe+7zvP83nmczOzu701wn8kQAILEjBkQwIksDABCsKzgwS6EKAgPD1IgILwHCABOwK8gthx46qKEKAgFRk027QjQEHsuHFVRQhQkIoMmm3aEaAgdty4qiIEKEhFBs027QhQEDtuXFURAhSkIoNmm3YEKIgdN66qCAEKUpFBs007AhTEjhtXVYQABanIoNmmHYGeC1Ibm1ypRs41amp2JXNVBQnsN6J71ci+KBy5p5f990yQczf/dNlLSw5vMyIX9LJBHqt0BO6IQn9tr7rqiSD1YPJUjc0uETmzV43xOCUmoPJ01PRP7kWHPRGktqU1KSp+LxriMapBQFWu6zT9TUV3W7gg9bFJX42ZLLoR7l9BAmrOiZrDvyuy88IFGWy0bjAilxfZBPeuLIGtUehvLrL7wgWpNVq3ici6Ipvg3hUloNKOmv6qIrsvXpCx1n1ipF5kE9y7ogQoSEUHz7bTEaAg6TgxVVECFKSig2fb6QhQkHScmKooAQpS0cGz7XQEKEg6TkxVlECVBYlCP9eXoAcbk4ERswU9lVR0vBOOBOi6bvlao6U2+5HJMdQoiM1pNP8aCvJGLs4zoSAUZC4BXkF4BXmNAE+GN/5yIBMKQkG6XDQpCAWhIBQk/X01n0HSs0pKOv9AKiK8gvAKwisIryBJv+te/zmvIOlZJSV5BeHLvEnnyHw/z/XNuPkOULP8/yC8neCrWIknNK8giYhSB3gF4RUk9ckyJ8grSAI1ftTkjYD6hgmvIDbOz7+GVxBeQWzOJl5BeAVx9wOcvILYOM8rSFpqzl9VKUjaUSfnnD8Z+EbhfA9D1f2zP3yZly/zJv7aq/IVxIj8IhEQEFCRM0TkdGDJq9HHjchjFusWXKIin7HZj0yOoVZlQWxOIK6pGAEKUrGBs12MAAXBeDFdMQIUpGIDZ7sYAQqC8WK6YgQoSMUGznYxAhQE48V0xQhQkIoNnO1iBCgIxovpihGgIBUbONvFCFAQjBfTFSNAQSo2cLaLEaAgGC+mK0agyoK8bMwpFRt3pdtdovpXGECVBcn7/4PA8LmgpwSsvjOFgvR0RjzYIhKgICB8XkFAYI7HKQg4QAoCAnM8TkHAAVIQEJjjcQoCDpCCgMAcj1MQcIAUBATmeJyCgAOkICAwx+MUBBwgBQGBOR6nIOAAEUHqwY6PxbGeZlSXiZEBE+ufpqd13/1bNxwED5trfG5dRtSLB/SPnvzv0XZw+fO5HgjcrB/roiDgENMIsqrRukBFv6RiPr/A9luj0N8MHjpzPKGuJ0XMpigc/mXmA4EbdKtLRf5mxBuNwvU3g9vmEqcgIMYkQQaDHaslju80Iku7bq2yO2r6nwQPbx1PW1cR37HRreh+revVmikIeMp1E2RwbPJDxpjbReTUNNsalU3tpn9dmmyWTFnqUiNDnXH/7iws0LUUBCTWTZBaY2qTiH4L2VJjGepMFDv0eqM1oSLXlKCuP7/sTQ89EHz570gvWbIUBKTXVRC7LwZ9dMnLS9fs+cYX/wGWkjpeG2sdECPvTL3gSLA/61L5WdT0vwD2Yh2nICC67leQloLbzcbNzVE4vN5ubfdVtbGpFWL0Qbu9i6trMNh+jom9B2zqUpHRTuhfa7MWXUNBQGLFCCJS1PNIPbjpAxov+QvY5mvxoupaPdo6bdqTJ2zriiW+6P5wwy7b9WnXUZC0pGZzRQkys30RzyPnffPWt7106NC/wTaPihdRVz248USNT/iPfV3miYFYz793wn/Sfo/klRQkmdFRia6vYjWmfmNEh8At58YLue+vNVozr6x9ug/rmrn1W2Fdl5FfReP+Ouv1KRZSkBSQ5ka6ChJsX21ibw+45THx/O/768HUhRrrHf1W1+DY1AZjdFuWutTIRGfcH8uyR7e1FAQkm/RGYa3Ruk1EMv1WK+K+vx/rqgc/OknjN/1eRE4Dx3BU3Ii5uB0O/zzLHgutpSAg1SRBZh8+78o69Lzv+/u1rlpjap2IzvxSyfLvGU9l6L6mvy/LJvOtpSAg0SRBZrbLaei5P4/0a122X4U9d3QqelcnHDkfHGdinIIkIjo6kEaQmRV5DF0k/+eRfq0rj1tAFflOJ/SvAkfaNU5BQJppBTlyJeHzSFq8ed0CGjF+OxyeSnvcpBwFSSJ0zM8RQfIaOp9HoCE9O/s8shdatUCYgoAUEUH4PALCzenWVEWjE05aNnTnFZ96Ea/g6BUUBCSICsLnERBwXremIje2Q/9r+NEpyCsEanafvBUbQfg8gp2med2aGtWvtpsjP8SOTkEWRZC8hs7nkfSnu4oe8ow31B4f/m36VRRkUQTh8wh+iubxkrQR8wfx4vPbwYjVBzb5DALOzfYW69XD5DF0vj+CDc2IbGuH/mXYqiNpCgJSyyoIn0cw4HndmhrVK9vNke9iR6cgdRRYHoLkNXQ+j6SfnorEnmeG2sHw7vSrKMiiCJLj88jDB72nVjwWBIeRoXfL5vR5rdzryufWVB6KQv/jCCveYiG0RKxf5p3vMHkM3XiyqR3k+6eD+rWuPD66o2Iu7gAfjacgiyhIPs8jZv/z73nh/Xs3bnwJbKVrPPvJaPZH4fD78qwpj1tTFfl1J/QvTFsXBUlLajaXxzPI3EPmMfSBafPee68dfgZspWs8j7ryZpXTrem+KPSXp2VFQdKSKkiQPIZuPP1IOxh5BGwlMZ71eaQIQWaKznILqCL/6oT+OxKbnw1QkLSkChQk69Bjz5x1fzD8KNhKqrjtyYieiKmKmROyvQVE66Ig4GSK+q2Y4XnkiSj0Pwi2AcVtTkYVuaUT+pdCBwLCtreAaF0UBBjKTLRIQeyGrj+IwpErwDaguE1dKnJpJ/RvgQ4Ehm1uAdG6KAg4lCIFQZ9HVGTPf70X1+4NNh4C24Dj4Mk4GYX+BvggFgvAW0C4LgoCDqVoQY48j7QuMSI7E0p7WJfGF3VGNzwNtmAdT/l3rB4+7vjjV++++nPPWR8IXFgfa12lRr6dxMumLgoCDqMXgsyUtPqam06ZXnLc9aJaE5E5r7qY/cbT7x2Qp76f5zvoaTGsGtvxidjo9SJypoie+Pq6xa1rcLS1xngSqMjZR395Uba6KEjaM2M21ytB5pY1OPqT03XJwFsGZPrAAXnmwGKIMR+mlcHOM0QOv7mf6jojuHXpu+SFM6dFD8tx3sFDJx36Z5Y3USmIA4KAJTKeIwEKAsJcjCsIWCLjORKgICBMCgICczxOQcABUhAQmONxCgIOkIKAwByPUxDHB8jy+5CASjtq+quKrMwUufnM3rZ/F6vourh/CQhQkBIMkS0UR4CCFMeWO5eAAAUpwRDZQnEEKEhxbLlzCQhQkBIMkS0UR4CCFMeWO5eAAAUpwRDZQnEEKEhxbLlzCQhQkBIMkS0UR4CCFMeWO5eAAAUpwRDZQnEEKi2ISrs4sty57wgYgb8BQKosCD/u3nencKEF8ePuIF4KAgJzPE5BwAFSEBCY43EKAg6QgoDAHI9TEHCAFAQE5nicgoADpCAgMMfjFAQcIAUBgTkepyDgACkICMzxOAUBB0hBQGCOxykIOEAKAgJzPE5BwAFSEBCY43EKAg6QgoDAHI9TEHCAFAQE5nicgoADpCAgMMfjFAQcIAUBgTkepyDgACkICMzxOAUBB0hBQGCOxykIOEAKAgJzPE5BwAFSEBCY43EKAg6QgoDAHI9TEHCAFAQE5nicgoADpCAgMMfjFAQcIAUBgTkepyDgACkICMzxOAUBB0hBQGCOxykIOEAKAgJzPE5BwAFSEBCY43EKAg6QgoDAHI9TEHCAFAQE5nicgoADpCAgMMfjFAQcIAUBgTkepyDgACkICMzxOAUBB0hBQGCOxykIOEAKAgJzPE5BwAFSEBCY43EKAg6QgoDAHI9TEHCAFAQE5nicgoADpCAgMMfjFAQcIAUBgTkepyDgACkICMzxOAUBB0hBQGCOxykIOEAKAgJzPE5BwAFSEBCY43EKAg6QgoDAHI9TEHCAFAQE5nicgoADpCAgMMfjFAQcIAUBgTkepyDgACkICMzxOAXBBrgvCv3l2BKmXSZgJYiRH0fj/sYi+zZFbj6zd31s8mo1Zit0HCOtaNwfgdYw7DSBWmPqVhH9LNKEUfP1dnP4BmQNmi1ckJXB9o96sbcXKcyo+Uq7OXwTsoZZtwkMBq21JpZdWBe6JgpH7sHWYOnCBZkpZ7DR2mlELklTmhHZ0w7989JkmSkXgcFGa7cROTdlV3dEob82ZdY61hNBZiV51oi8PaHS5zSW9Z0J/3brjrjQWQL1YMdynY4fFCNv7dqEytNR0z+5F432TJAjkkwGRsyW+RpT0bskHriyM7H+8V40zmP0J4HB0dZaz5MrdIEriapc12n6m3pVfU8FeUWSLa01RuVsI3qWqlmmnjwk03JPZ8K/u1dN8zj9T6A+NnVZbPTDRuTdYsSYWCMZkHY7GHmkl9X3XJBeNsdjkUBWAhQkK0GuLzUBClLq8bK5rAQoSFaCXF9qAhSk1ONlc1kJUJCsBLm+1AQoSKnHy+ayEqAgWQlyfakJUJBSj5fNZSVAQbIS5PpSE6AgpR4vm8tKgIJkJcj1pSZAQUo9XjaXlQAFyUqQ60tNgIKUerxsLisBCpKVINeXmgAFKfV42VxWAv8H3PZ2X0eJ6xwAAAAASUVORK5CYII=" vertex="1" parent="WIyWlLk6GJQsqaUBKTNV-1">
          <mxGeometry x="579.5" y="320" width="80" height="80" as="geometry" />
        </mxCell>
        <mxCell id="2o4ibDYSHPupsS00okfa-15" value="" style="shape=image;verticalLabelPosition=bottom;verticalAlign=top;imageAspect=0;aspect=fixed;image=data:image/png,iVBORw0KGgoAAAANSUhEUgAAANcAAADICAYAAAB7/XT7AAAAAXNSR0IArs4c6QAAEm9JREFUeF7tnX20HHV5x7/P3JuAAVLBcuILOadKlVNAUIRDA7k7ewMIGKxND0argTsbiqmIpfEAbV527tzZgLwVEKqVANnZQJADx2pBD1HRu7MJRjzN0SJQ7cEeakvlpR49kbe83Pm1eyWUJDuzO7Pzuzuz+91z+IOzz/N9nt/n+X2ze2dmZwRtXgs/v+lw45U9HzSgzlLAiQDmvfbf7Ha5fJ8E+oOAvAio5wB5DlB+gMDfZcze9qizbEfU+iTqzWK5dqmCuhKC+f0BiasggdQIPC1KTdQrJS9MsaW5Rpy7jzWCPTcDOCu1VihEAv1IQOD5E1ap1dIOMFfTWBLs2SLAEf3IgmsiAQ0EHvNdq/kn0z6vfcxVXFstKkMmNRSnJAn0PQHftfbx0+v/Q2P1/ey5QP0EHvJd60N7y0yb61jHmX1k8AfbAJykvz4rkEAfExDc4U9YFzdXOG2uouNdrgJc33bJCi8AeAKCHymoyMOQbbUYQAJ5IaBknoicAOAEQB3aru0AOHOLa31XTnXunntwMPUEoI6KTFJY4Ves9e2E+T4J9CuBRWu9o6eM6Q+hJZFrFDzgT1gfkRF7w9kGjM1Rwfv/odav8LguEuiEQHFt9RxlyEPhsbJrrvHq4WLa3tUAVoUGRhzH76QRxpBAPxIolL3rRXB52NrEmDpFTLv2CKBOax0kL4oRvLfulJ7uR0BcEwkkJVB0bj9KBbN+CuCQVhpK8LHmJ9dTAI4OMdf3fXfs9KQNMI8E+pmAaXs/BHBK6zUan2p+cv027AiIUvhyo2J9up8BcW0kkJRAwfbuEOCi1vnqyuYnlwoTV1ATDbfktHq/edI5aVPMI4G8EKivK9XDei3YVUcg463eF4VyV+bipVJ52SLsMymBqCPlNFdSqswjAQA0F7cBCWgiQHNpAktZEqC5uAdIQBMBmksTWMqSAM3FPUACmghk0lwSqFFN66UsCaRGIDBQDDtX1SySWXNFnYBLjQ6FSKALAlHnqmiuLsAylQRoLu4BEtBEgObSBJayJEBzcQ+QgCYCNJcmsJQlAZqLe4AENBGguTSBpSwJ0FzcAySgiQDNpQksZUmA5uIeIAFNBGguTWApSwI0F/cACWgiQHNpAktZEqC5uAdIQBMBmksTWMqSAM3FPUACmgjQXJrAUpYEaC7uARLQRIDm0gSWsiRAc3EPkIAmAjSXJrCUJQGai3uABDQRoLk0gaUsCdBc3AMkoIkAzaUJbL/ImmVvsl/WEncdfsXq6s7ONFdc4gMWH/Xo3X5HEXW76U7WTnN1QmmAY2iu5MOnuZKzy2Rmcby2sD4xtjWt5miu5CRpruTsMpW50Nn0ruFg93IFWa6grmi41qY0GqS5klOkuZKzy0Rm0akerKaM5RD1aQDH720qAM7c4lrf7bZJmis5QZorObueZxbK3lIRXApgpEUzTwTG8NItzrInu2mU5kpOj+ZKzq5nmUVn48lBMLVWIB9p2YRCXYbUkrpT+k23TTY3SLcaec1vuKWu1k5z5WzyZrm6GiJrAMwJM1a352dyhiSz7dJcmR3Nvo0V1244U4mxBoJiRMuTvmstysmS+r5NmivjIz7VuWXuwWruGihcGdmqwma/Yp2b8eUMVHs0V4bHPWp7ZwTADQDeF9mm4Ov+hLUkw0sZyNZoroyO3bSrnwXkRgDDbYx1rz9h/XlGlzHQbdFcGRv/9HmrYNpUzfNWbb4JqlrDLVnt4vh+bwjQXL3h3rLqiLPhpKFg6EYFZbZrSyC31d2xv2wXx/d7R4Dm6h37fSoXy7VlSlTzE+vIti0p3OJXrMvaxjGgpwRorp7i/11x0/auBrCqo1YE1/kT1t90FMugnhKguXqIv1DZ+E7snrop9EqL/XsTuP6ENd7Dllk6BgGaKwasNENHbW9xADS/Br6nE10FfLXhWud3EsuYbBCguXowB9OuXgHIdTFKP+671ntjxDM0AwRorhZDKKzZcJoMDR3ku2Op3z+iaFevUZA4fzM9/4IxZ/6TztJdGdgvbCEGAZprP1jFcvXjCnIDBAcByvXd0q0xeEaGFsa9W0VN/0QkxksW6TB5jAYYmpAAzfUGcGbZuxKCa/dhKVg/tEfc71019kxCxtNppu1tAFCKoyFKLq5Xxu6Ik5N2LO/+lJwozQVgwcr73jR77su3QOEvWqOU7xsQd9K98FtxUZ/72VsOevnNcze3uZr9QFkla/zKWPMQfU9f/LFkcvwDb67RtXcdExhT9wA4qQ3GHaJQqVes5oW0Hb0WOHccMTsY/jGA+R0l7A1SWO9XrBWxcjQF01zJwQ60uUy7+lFA7ouDT0HVAkO5W53l/x6VV1i3Yb7sMn4RR/u12O+8+OzOxdvXr9idIDf1FJorOdKBNtf030Ll6ghk2mBvjYFxuzLgNhzrgVY5o2Xv9ECQ5PZmPzeCqcWT6y76WYxetIbSXMnxDry5mugWOrX3DAXBfYCcGAPlTihx9/+7KMmn4Ws1AzHU4rpT2hyjB+2hNFdyxDTXa+wWrLzxTbMOO/xrAjk7Fk6Fe5Uy3Ma6C/+1UK4tF1F3xsp//e8s9Rm/UvpSolyNSTRXcrg0137sinbNU1BjMZE+3jwnFvfvt9d9JbihMWFdEbPmjITzUHxyzDRXC3bmuHdt23tWJGe+byZ/op8Wyczp0FwhIzFtbyV+d2GtztdvxFCjdafUPFzPV58RoLkiBmraXvPeFM1zYFpeotTKeqV0sxZxivacAM3VZgRmubYAUA9C8JZUp8Wvg6nizKIYzdXBVE537nz7cDD0bQDHdRDeSQi/DnZCKecxNFeMARZt72EFnBEjpWUovw52SzAf+TRXzDmZ5eomiHwiZtr/h/PrYGJ0eUukuRJMzLRr1wEqyXkpfh1MwDuvKTRXwsmZ5dolEPXFWOlKrfErpZ7/jCRWzwxOTIDmSowOKDgbPyRB8M0OJR6ba+xc8KCz4uUO4xmWcwI0V5cDHC17xwWCRwD8XpSUMuSihjPW/DUyXwNCgOZKYdAfvHzjITvnqO2AOqaVnIJ8q+GOnZNCKUrkiADNleKwzLL3HQjO3F8yAM7b4lqdfn1MsSNK9ZIAzZUyfXPcu32fe3EIPH/CinVjmpRbolyPCNBcGsAXbG+NAOsUsGNIYdFkxdquocyMSDY3iM5CrR7qrbtmp+vhA8c7JTXDccXyhmVKjGN911o9w6VTLaf7x5K+a8n+Dbf7Fz/VBUaIteotTu1264jSj8oVhbJEDUZBTYT9y1BcWy0qQ0LvdiuBGq2vK9XjLLQXsYvW1N7R7f0Oe9H3G2vSXMknQHMlZzcQmTRX8jHTXMnZDUQmzZV8zDRXcnYDkUlzJR8zzZWc3UBk0lzJx0xzJWc3EJk0V/Ix01zJ2TGTBCIJ0FzcICSgiQDNpQksZUmA5uIeIAFNBGguTWApSwI0F/cACWgiQHNpAktZEqC5uAdIQBMBmksTWMqSAM3FPUACmgjQXJrAUpYEaC7uARLQRIDm0gSWsiRAc3EPkIAmAjSXJrCUJQGai3uABDQRoLk0gaUsCdBc3AMkoIkAzaUJLGVJgObiHiABTQRoLk1gKUsCNBf3AAloIkBzaQJLWRKgubgHSEATAZpLE1jKkgDNxT1AApoI0FyawFKWBGgu7gES0ESA5tIElrIkQHNxD5CAJgI0lyawlCUBmot7gAQ0EaC5NIGlLAnk0lxQqHN0JJALAoJiWJ++a0nYe1HGFIWyRD3yU0FNNNyS00q8uLZaVIZM5gIemySBhARoroTgmEYC7QjQXO0I8X0SSEiA5koIjmkk0I4AzdWOEN8ngYQEaK6E4JhGAu0I9M5cIuPtmuP7JJBnAn7FGp3xQ/F5BsbeSSANAtrOc6XRHDVIIM8EaK48T4+9Z5oAzZXp8UQ317wKJjDCL80Ju3omx0vOVes0V67GtW+z7S4xizqSleNl56Z1mis3ozqwUZor28OjubI9n8juaK5sD4/myvZ8aK4cz4fmyvHw+MmV7eHRXNmeDz+5cjwfmivHw5v+5Iq4xCzq0pwcLzs3rdNcuRkVG80bgfbmKnvPQ3Bk64XJ/b47tjRvi2a/JDATBMyy908Q/EnLWgqXNe+h8TiA40KaecJ3reNnolHWIIG8ETDt6k8BOaZV32IYJTHL3iQi7n6jApzdWGd9O28LZ78koJOAWa6OQKQRViMAzpeC7X1GgL+PaOQx37VO1NkotUkgbwRM2/s5gHeF9T1lyDEy4tROMAL1L1GLE6hr627pb/MGgP2SQNoEPuDcNufQ4KCtAN4fof2U71rvnr7hoWl7DwD4cHQjcr8yjJsP+dWvtz9061/tTLtp6pFAlgmcsar2lmCWKgaQ2wF1eFSve+/3OW2uolM7TwXqwY4Wp7Abgp9AYUdH8QwigbwTEJkHqD/qcBn/HRw0dPKWNRf88vVb9Zq2948AlnQowDASIIEWBN54l+p97oNt2t5TAI4mNRIggfgEFMRpuGMTezMPuMl8wfZ+JcAR8aWZQQIDTEChvv/laC2f4GDatfsA9dEBRsWlk0AMAnKX745duH9Cu8ejXAzg7TGqMJQEBoiA/Oz/jhx+wXetf2i16FBzNYNHrrrrbbJzzwqBLOPfYgO0Z7jUdgS2K6hvBLte+cLWay75dVhwpLnemGTatSVK1GmiZB5EzUOA2e06GNj3wy4n6/0DAU+B4JCWc+l9b5ndLkrwkgE8q0SemwqmHthaWf5oJ812bK5OxBgzfUJehXFQgpsbE9bKXnEybW8bgD9uVV8B32y41nm96q0f69JcKU719GvvPGz4paHQk+sKYjXcsVqKJWNJmePebVD4VMgn126/YvHbSCyi0cE0V4owC7b3SQHuDpM01ND7JisXRF7HmWI7B0gVndqlKlC3htV48dmds7evX7FbZw+DpE1zpTjtgl29VyAfC5H8ke9aJ6VYLrbUaHmjGUgQ8SD4qUW+exGfcx2bbOsEmislkE0Z0/aeiTh1UfVda3mK5WJLFZ3JYRX8x9MA3hGS/HnftVbHFmZCSwI0V4obI+pgBhQu8yvWLSmWSyRllr2HIDgnJHm771onJxJm0gEEaK6UNsWo7Z0RAA+HyakpmI2rrNBfrqbURlsZ065eB8gVYYG8/3xbhB0H0Fwdo4oOLNq1mxXUZSFRr75qDM971FnW85/pmHb1AkA2hq2m+Qvarc7Yv6WEZaBlaK6Uxl+waz8QqFNby6kHfbfU+i5BKdXvVKbo3H6UCmb9Z0T8J3zX+kqneowLJ0BzpbQ7TNt7CcCcVnKiUK5XrHUplepaJvKOXwqeX7FKXRehAGiuFDZB0bnjeBUM/yRMSgz5cN0Z+0YKpVKRMMe9r0Dh4yFiz/iudVQqhQZchOZKYQOYtrcKwNXh5hqeX3eW/VcKpVKRMMu11RB1VXi/6m11p/RsKsUGWITmSmH4Ztm7H4LzQ6Se9l3rnSmUSU1itOx9IBD8c6i5AnVufV1pc2oFB1SI5kph8FF3XoVgvT9hrUihTKoSZtnbAcFhrf9GVKvqldI1qRYcQDGaq8uhF517fl8Fu14Ik1HAsoZrbeqyTOrppl19BJDTWgorbPYr1rmpFx0wQZqry4EXy1VLiVTDZAyF4ycr1hNdlkk9vWBXvyyQlp+oCgh2/3bOodtuWvpK6oUHSJDm6nLY5njt76DU58JksnrFw4jtLTaA8COYSk7zK2PN33/xlZAAzZUQ3N400/aaD6k4K0TmB75rLeiyhLb0yGshgUvC7g2hraE+E6a5uhyoaXu/BPDWljIC15+wxrssoS3dtL1fAJgf0nsmD8Rog6FBmObqAuqI7Z1hRFysaygsnKxYj3RRQmuqOe59DQp/GlLkx75rRT1sQGtv/SBOc3UxxWK5+tdK5KYwiV1vnjNn2+eye1CgUK4tF1F3hvUfGMPHbXGWPdkFooFOpbm6GL85Xr0TSsJ+APmS71qHdiGvPXVk1YYjjVnG82GFlGF8suFceI/2Rvq0AM3VxWBN2/shgFNaSih83a9YmX+wRfRBDbned8eu7ALRQKfSXAnHX1hbfbcY8hiAg0MkcnG0Lep2a1B42K9YYUdCE5IbnDSaK+GsC87GP5Mg+GpY+lCAP/zeOqv5aM9Mv8xydTVEwi7i/R8xdr+/7lycmYuOMw1zv+YG2lwFu+p0MyyBhB5mbz6nqRvtmczVuY6GW+qK8UxySLvWQJurzUnUtFkPnl6Lx+oMEgSaa5CmPdNrpblmmnh26vGTS/MsaC7NgDMsT3NpHg7NpRlwhuVpLs3Dobk0A86wPM2leTg0l2bAGZanuTQPZ8DN9b8iIDGSNXC9JwAAAABJRU5ErkJggg==" vertex="1" parent="WIyWlLk6GJQsqaUBKTNV-1">
          <mxGeometry x="1030" y="190" width="101" height="93.96" as="geometry" />
        </mxCell>
        <mxCell id="2o4ibDYSHPupsS00okfa-17" value="" style="shape=image;verticalLabelPosition=bottom;verticalAlign=top;imageAspect=0;aspect=fixed;image=data:image/png,iVBORw0KGgoAAAANSUhEUgAAAMgAAADICAYAAACtWK6eAAAAAXNSR0IArs4c6QAAExJJREFUeF7tnX1wXOV1xp9zV8aUbwdoIEAgpECAQKlkrE3BWskp0zQtTDMMzDQFdJcvN9N0Mu1MCRlb66uVTQupO50wdGoPWCtj2g502jRMyzR1zO6a4KWEJE3BoUDDNOEjJICBMOZD2nvau7LByJK99+rc3Xe1j/5+z/Oe9znnp/feu+/eFfCPDtCBOR0QekMH6MDcDhAQdgcdOIADBITtQQdcA6Rvw4ZFh7/4S8sR1gei3Dx4L4aquzzIUaGEJ7Ni3euAp95z0PAZT72nt60bfr7dTrR0BxkaKfWFHm6E4nIAx7Z78ZzfdQfkZUj4DQ3xrbrnPfTt0eEftzrjlgDyG1/ecPTkoYtvg+LGVi+Q8y0cBwRYX596Z/32W1a+2KpVpQ7IwMj4eSLyDQCntWpRnGdBO/CsAuurRf+OVqwyVUCWB1vO8cKpJ1qxEM7RdQ78XaXofz7tVacGCOFIu3TUB/BUpeiflaYTqQAysHbTKfKu9wCAc9NMntp0QIE3qkX/6LScSAeQNaXbRfHFtJKmLh3Y1wGF/Fu1OPyZNFwxByRXGL8EkG+mkSw16cDcDsh9leLwldYOpQBIaQeArHWi1KMDB3dAr6wU8/cdfFzzI0wBGQzGL9BQvtf89BxJB0wdqFaKfs5S0RSQ3JrSA1Ckci1ouWhqLVwHxJMbysHwnVYrtAWkUPoFgCOskqMOHUjgwAOVov/ZBHGzhpgB8uvB+AWLeHllVRfqzMOBd72pY3cE1786D4n3Qs0AGRgp3S7CR7sxivIygJ2qulMUOzPIPBGiHsaIX5hDe3BCGOITAlmTdIEKXFUt+vckjd83zgyQXKH0MIBPJUkq9HrOfQWHPHPc5O6sZKQfgixUoydhH0mi18ExjwJSUw1rOCSzozpyzbMdvJZ5pT6fkxgCvbVczN88rwT2BFsCEp25OiduUgIdLRfzwWxxF62Z+GiPRsBoFoqsIswKxIs7RwePf0kgNUTAKGroQa0c5N/u4PXESn1wZNxXkfFYQdFgwcbKqL8ydtwsAZaARGf1T4mbVKYuJ8f5YkxuZPzC6R0GWRVEwJwed84OHx89Rq+pohZmpPZQMPxUh69nzvRXrJo4qZ7R5+Kvz+5DQzNABgrjrwjkQ7EWo3irMuYfFitmxuDlt2w63ntbsg1oQmQh0g/g8PlodlKsQl/1IDsaO0xGasCbtXLwh2920hoOlGuuUPpPAOfHWo9ia2XMvyRWzByDzQDJFUq7ABwTM6nXKkV/ScyYgw6f/g5KY3fp1+lP9bvt0OTjETCakR2Kem17cO3Og5rm6IDcSOlBCAZjpacoV8b8oVgx3QTIzLVedNNdR/Yc6mWlcT8T3cs0oOmmr/y+0dhhPNRENDoKFN3LvGbRQGlrEJAUdpBmijawevwMr8frR6h7gelrJm4BjXmysctIWFMvs2N7MPwDF9dGQNoEyMxm6Ltxw6IjTzy0AUwYXZ5pdD+Dk1xsmpRy2g2VGrzpJ2bhpNa2/9m1P09prqZlCYgjgMxWscFgy8lAPduABtP3NID2NF3djh8ozwD6KBTf1wyerAZ+9G6Blv4REIcBmR2azUtRj3YZ3QvMr7S0Y9o72WNQbKyM+RtblQYB6TBAZjbGYPC3x2FqMhtmpF8QNj6fWegHNhX4Njzc1oodhYB0OCCz7zJ3fhJhT3/0QeYeYD7Zqv+4LZ1HdFNlNH9dmnMSkAUIyP67zB1HSHh4fz26j5m++Y92mePSbKxWaavib6pj/hfSmo+AdAEgszXPitWlj4ce3n9iBixNq8nS1hVgXbnor05jHgLSpYDMbKYr7r038/J/7c7W33/EHB2ZiX22LY0mbUYzBH5ne9H/l2bGxhlDQAjInP0SHdabzGjjskwEETDRpdmiOA3WwrE7xDt1oBwMTVnOSUAISKx+it6Q39hlpj+TiYA5I5ZAioMVOlqd46sLSaclIAQkae804j79lYljJxdLv4QRLNPfm4HgyHmJJg9+IVycWbp91dVmb18nIAQkeTvOERl9G09Qz0p0/H96lznPfJI5BK13EQJCQFLv3UuD+w97HbuyUq/vecTc+M7ML6c08Qtvez1nPxJc9YaFPgEhIBZ9FFvj4mDT6V5dopv/LBr3M1gWW2SOAPHkknIwvNVCj4AQEIs+mrdGEATeNnw0K/Xo25kSfSYTHf8/M4mwAqurRX9dktiZMQSEgFj0USoauUIpOr17aXxxvb9SzF8WP27/CAJCQCz6KBWNgWDzZyUMk3z491il6JucDCAgBCSV5rYQHVi16RTJeEl+WfZHlaL/cYscCAgBseij1DRyhdJPAXw45gS7KkU/3htu5piAgBCQmL3X2uGJGhRApeibvDEn0fx8q0lrm6SbZ0vUoARklqcNDr0Xq5sb2nrtBMTIUZdeHGe0JMoAICBGbUBAjIx0TIaAGBWEgBgZ6ZgMATEqCAExMtIxGQJiVBACYmSkYzIExKggBMTISMdkCIhRQQiIkZGOyRAQo4IQECMjHZMhIEYFISBGRjomQ0CMCkJAjIx0TIaAGBWEgBgZ6ZgMATEqCAExMtIxGQJiVBACYmSkYzIExKggBMTISMdkCIhRQQiIkZGOyRAQo4IQECMjHZMhIEYFISBGRjomQ0CMCkJAjIx0TIaAGBWEgBgZ6ZgMATEqCAExMtIxGQJiVBACYmSkYzIExKggBMTISMdkCIhRQQiIkZGOyRAQo4IQECMjHZMhIEYFISBGRjomQ0CMCkJAjIx0TIaAGBWEgBgZ6ZgMATEqCAExMtIxGQJiVBACYmSkYzIExKggBMTISMdkCIhRQQiIkZGOyRAQo4IQECMjHZMhIEYFISBGRjomQ0CMCkJAjIych8zQ6rvPqmMqrK7NPz0PmQ+EEhAjJwmIkZExZXKF8SsU8iUBzgdwZCNc8XN42CGia8pB/vsxJQnIPg6Y/BJppEdA5tOGyWIHChNfFuifHyhaVP+4PJb/q2Qz8CfYCEjSzmlz3NBIqS8UfKeZNDzF0gfH/MeaGTtzDC+xkrg2Swx3ECMjm5C5NNhw2OvhodsE2t/EcCjkkaO9t1fcH6zc3cz4fccQkLiOzTGegBgZ2YRMrlD6AoC/bmLoPkP0mkoxf3e8GF5i8RIrbsc4MH6gUPoHAS6Pl4p8tVIcvileDAEhIHE7xoHxucLEq4AuiZWK6r9WxvK/HSuGv5MOAhK3YxwYnyuUNHYainJlzB+KG8d7kLiO8R7EyLHkMgTkIN4l/Gcwmyp3kOR92rZIAkJA2tZ8nTAxASEgndCnbcuRgBCQtjVfJ0xMQAhIJ/Rp23IkIASkbc3XCRMTEALSCX3athwJCAFpW/N1wsQEhIB0Qp+2LUcCQkDa1nydMDEBISCd0Kdty5GAEJC2NV8nTExACEgn9GnbciQgBKRtzdcJExMQAtIJfdq2HAkIAWlb83XCxASEgHRCn7YtRwJCQNrWfJ0wMQEhIJ3Qp23LkYAQkLY1XydMTEAISCf0adtyzBVKLwM4NmYC91eK/mUxY8C3msR1bI7xfLOikZFNyOTWlMah8JsY+t4QhY5Wi/kgTkw0loDEdYyAGDmWXGagULpOgDvjKIinv1cO8n8fJ4aAgC+Oi9swLowfDMaP0VC+C+BjTebzrHjaWw7yrzU5/r1h3EHiOsYdxMix+ckMrh7/XfXkn5pRkVA/V16b/3ozY2eOISBJXJslhvcgRkbGkBkYmbhWRO86UIgCV1WL/j0xZD8wlIAkdW5GHAExMjKmzNDI5v5Q9C/R+Ak2PWJP+CsQqWSmJv9k27rr/zemJAHZxwG+enQ+3eNY7PJgyzky9ZZW197wQ6vUuIMYOckdxMhIx2QIiFFBCIiRkY7JEBCjghAQIyMdkyEgRgUhIEZGOiZDQIwKQkCMjHRMhoAYFYSAGBnpmAwBMSoIATEy0jEZAmJUEAJiZKRjMgTEqCAExMhIx2QIiFFBCIiRkY7JEBCjghAQIyMdkyEgRgUhIEZGOiZDQIwKQkCMjHRMhoAYFYSAGBnpmAwBMSoIATEy0jEZAmJUEAJiZKRjMgTEqCAExMhIx2QIiFFBCIiRkY7JEBCjghAQIyMdkyEgRgUhIEZGOiZDQIwKQkCMjHRMhoAYFYSAGBnpmAwBMSoIATEy0jEZAmJUEAJiZKRjMgTEqCAExMhIx2QIiFFBCIiRkY7JEBCjghAQIyMdkyEgRgUhIEZGOiZDQIwKQkCMjHRMhoAYFYSAGBnpmAwBMSoIATEy0jEZAmJUEAJiZKRjMgTEqCAExMhIx2QIiFFBCIiRkY7JEBCjghAQIyMdkyEgRgUhIEZGOiZDQIwKQkCMjHRMJleYeAHQE+OkpcCr1aJ/bJyYucYmAlRRroz5Qxbz81duLVxcoBorVk2cVM/ocwmW90yl6J+RIG6/EAJS9JdYGEkNewcGVpcuEw//HFdZIY9Ui8PZuHGzjScgBMSij1LRSNScUSaCUmXUz1sklSgHXmJZWE+NfR24+OZ7liw6ZLI3hPZCpBeKXgBnJnFJgeurRf+uJLEzYwgIdxCLPoqtsTyYOD+DsFdDrxcI+wCJgDg0ttAsAarSWx0b/p6FFgEhIBZ9dECNwWD8BAmlL1T0qWivTMNwSkoTP14p+udZaRMQAmLVS+/pXDyyqT8jXi8Eey+VIiBa8qfA6mrRX2c1GQEhIPPqpRWr7jk1lKkL1dNehfRKdA8BHD8v0eTBb2VCnLdtrf8/ySU+GElACEjTvfRbf/S1xW8ec0TW++DucE7TAmkPFHytMup/yXIaAkJA5uyni4OJM3uAZRo2doU+oPFk6QjLBjTUenLS83IPB9f8zFATBISANPqpP9hy1OKpqayILlWJLpUaMHzMstnS1BJPri4Hw1us5yAgXQrIwMj4eSLINmBofOYQPVnSHusGa4WeAHeUi/4X05iLgHQBIMu/sun4zOJMv4ZYFt1ERzfTcQ8AptF8Jpqq2ypj+U+baM0iQkAWICCDwealqGtWPZ2+b1Ccn1YDtVVXsLEy6q9MMwcC0uGArFg7cZK+q9kQ0g8N+xrHNIBj0mwaF7RV5brq2PCmtHMhIB0EyBVX3Jt5+RO7s3VBFtAL93wibXKsO+1GM9MXbPRCbHxwzH/MTPMAQgTEYUAuDu453UM9K6FGR7f7MP0hnMl5pVY0l8EcP4PId6D634D+0FP5bqvA2Js7AXEEkL5gw2GHY1FW6pIV8ZbpNAxpnVcy6N1UJB4FpKae1EJkag8Fv/+jVGaJIUpA2gTIwOrNZ4sXZhFdLikuBPBrMeq2EIY+r0DNU9QQ1mtY9JNaOQimXFsYAWkBINF3HTKHTGUhmhWVfkXj6dJxrjVDivmE0c4ACWtQ1LSuteq6a3+S4nxm0gQkBUAGg/ELUEdjd1DIMgBnm1WsM4SeBdCAIcxIbXsw/B+dkfb+WS4YQAYK468I5EMxC7G7UvQPjxnzgeHRdx0whWzoISsSPWqVpYC6el5pPkudK/ZtCGoKqWUUNW9qUe1bt3z+pTQmaodmrlCKnpbFO66v2FoZ8y+xyNfyrSY/TnJTK56eWA7yP212MUMjm/vrjUslzSICAtox55WaXeNBxj0V7QwNKHSqVh273uSbe0a5mcpE//w0lBfji8p9leLwlfHj9o+wBOQJAPGPXh/giPSKVXeeOpXxsgKvH2jcTC+DIGOx8A7R+EXjUgla0xC1yZ56bUdw/asdkvu808yNlG6C4NbYQoaf8FsC8jCAT8VeDIBwceYjJ0wufuUl7M7KnnuHBhBArBeWJZnbsZjHp3cGNC6XHhzzo386Xfm3fN3dJ3rv1F9IsniB3lou5m9OEjszxhCQ8dsA+VOLpLpE4w0AO6G6U1R2qic7JQzf6pK1z71MwWmh4DSBrEnuhV5ZKebvSx7/fqQZIEMjpXNDweMWSVGDDszHAfF0STnIvzYfjb2xZoBEggOF0usCHGWRGDXoQCIHBF+vjPqfSxQ7S5ApILk1pQf+/wnLZ6ySow4diOuAeHJDORi+M27cXONNAYk+oNNQFuxjRyvTqZOaA9VK0c9ZqpsCEiWWK5R27HkCZZkntehAEw7Y3Zyncg8yDcj4JYB8s4nVcAgdsHNA5R8rY8OX2wlOK5nvII2b9TWl20WRypf4rQ2g3oJw4AeVov+raawkHUDWbjpF3s38O6BnpZE0NenAew4o3qqM+Yel5UgqgETJDo2ULgpF7geUP5CTVvWo+1Cl6C9P04bUAJm+H9l8qSLcws9G0ixhd2qr4C+qo37qJzdSBSQqXfQKnDDUtQL9ze4sJVdt7MCzCqyvFv07jHVnlUsdkL2zDhTGAwH+AJAPt2JhnGPhOSDA+vrUO+u337IywRH4ZH60DJAoveiEprwztVIgVwM4PVnKjOoiB3YBshWqW+uZcOtDwbUtf4lESwHZt7B7vhY7GAqO8eC9GKru8iBHhRKe3EUNwKXOcMBT7zlo+Iyn3tPb1g0/326D2gZIuxfO+elAMw4QkGZc4piudYCAdG3pufBmHCAgzbjEMV3rwP8BZa0RjLjo6XAAAAAASUVORK5CYII=" vertex="1" parent="WIyWlLk6GJQsqaUBKTNV-1">
          <mxGeometry x="810" y="186.57" width="90" height="90" as="geometry" />
        </mxCell>
        <mxCell id="2o4ibDYSHPupsS00okfa-21" value="&lt;font face=&quot;Garamond&quot;&gt;公司员工&lt;/font&gt;" style="html=1;shadow=0;dashed=0;align=center;verticalAlign=middle;shape=mxgraph.arrows2.arrow;dy=0.72;dx=45.6;notch=0;" vertex="1" parent="WIyWlLk6GJQsqaUBKTNV-1">
          <mxGeometry x="900" y="191.88" width="120" height="66.25" as="geometry" />
        </mxCell>
        <mxCell id="2o4ibDYSHPupsS00okfa-22" value="&lt;font style=&quot;font-size: 17px;&quot;&gt;&lt;b&gt;身份认证&lt;/b&gt;&lt;/font&gt;" style="text;html=1;align=center;verticalAlign=middle;resizable=0;points=[];autosize=1;strokeColor=none;fillColor=none;strokeWidth=3;" vertex="1" parent="WIyWlLk6GJQsqaUBKTNV-1">
          <mxGeometry x="345" y="148" width="90" height="30" as="geometry" />
        </mxCell>
        <mxCell id="2o4ibDYSHPupsS00okfa-23" value="&lt;font style=&quot;font-size: 17px;&quot;&gt;&lt;b&gt;角色检查&lt;/b&gt;&lt;/font&gt;" style="text;html=1;align=center;verticalAlign=middle;resizable=0;points=[];autosize=1;strokeColor=none;fillColor=none;strokeWidth=3;" vertex="1" parent="WIyWlLk6GJQsqaUBKTNV-1">
          <mxGeometry x="579.5" y="148" width="90" height="30" as="geometry" />
        </mxCell>
        <mxCell id="2o4ibDYSHPupsS00okfa-24" value="&lt;font style=&quot;font-size: 17px;&quot;&gt;&lt;b&gt;动态授权&lt;/b&gt;&lt;/font&gt;" style="text;html=1;align=center;verticalAlign=middle;resizable=0;points=[];autosize=1;strokeColor=none;fillColor=none;strokeWidth=3;" vertex="1" parent="WIyWlLk6GJQsqaUBKTNV-1">
          <mxGeometry x="810" y="148" width="90" height="30" as="geometry" />
        </mxCell>
        <mxCell id="2o4ibDYSHPupsS00okfa-25" value="&lt;font style=&quot;font-size: 17px;&quot;&gt;&lt;b&gt;非法用户拒绝入网&lt;/b&gt;&lt;/font&gt;" style="text;html=1;align=center;verticalAlign=middle;resizable=0;points=[];autosize=1;strokeColor=none;fillColor=none;strokeWidth=3;" vertex="1" parent="WIyWlLk6GJQsqaUBKTNV-1">
          <mxGeometry x="308.13" y="390" width="160" height="30" as="geometry" />
        </mxCell>
        <mxCell id="2o4ibDYSHPupsS00okfa-26" value="&lt;span style=&quot;font-size: 17px;&quot;&gt;&lt;b&gt;访客进入隔离区&lt;/b&gt;&lt;/span&gt;" style="text;html=1;align=center;verticalAlign=middle;resizable=0;points=[];autosize=1;strokeColor=none;fillColor=none;strokeWidth=3;" vertex="1" parent="WIyWlLk6GJQsqaUBKTNV-1">
          <mxGeometry x="554.5" y="390" width="140" height="30" as="geometry" />
        </mxCell>
        <mxCell id="2o4ibDYSHPupsS00okfa-27" value="&lt;span style=&quot;font-size: 17px;&quot;&gt;&lt;b&gt;不同员工访问不同的网络应用&lt;/b&gt;&lt;/span&gt;" style="text;html=1;align=center;verticalAlign=middle;resizable=0;points=[];autosize=1;strokeColor=none;fillColor=none;strokeWidth=3;" vertex="1" parent="WIyWlLk6GJQsqaUBKTNV-1">
          <mxGeometry x="835" y="290" width="240" height="30" as="geometry" />
        </mxCell>
      </root>
    </mxGraphModel>
  </diagram>
</mxfile>
